<?xml version="1.0" encoding="utf-8"?>
<!-- Generator: Adobe Illustrator 16.0.0, SVG Export Plug-In . SVG Version: 6.00 Build 0)  -->
<!DOCTYPE svg PUBLIC "-//W3C//DTD SVG 1.1//EN" "http://www.w3.org/Graphics/SVG/1.1/DTD/svg11.dtd">
<svg version="1.1" id="Capa_1" xmlns="http://www.w3.org/2000/svg" xmlns:xlink="http://www.w3.org/1999/xlink" x="0px" y="0px"
	 width="2048px" height="2048px" viewBox="0 0 2048 2048" enable-background="new 0 0 2048 2048" xml:space="preserve">
<g id="Activitats">
	<path fill-rule="evenodd" clip-rule="evenodd" d="M1906.8,1506.4c-7.9,52.5-26.6,100.8-57.8,143.7
		c-70.1,96.1-165.9,141.7-283.9,141.8c-355.7,0.2-711.4,0.1-1067.1,0c-20.3,0-40.7,0-60.8-2.1c-139.2-14.2-235.3-87-287.5-216.5
		c-10.3-25.4-21.7-51.6-21.7-79.8c0-250.7,0-501.4,0-752.1c0.8-2.1,1.9-4.2,2.3-6.3C143.4,659.1,185,605.4,255.8,574
		c4.3-1.9,8.2-9.1,8.8-14.3c5.6-47.3,30.4-70.4,78-70.8c36.5-0.3,73.1-0.1,109.6-0.1c55.5,0,74.9,14.7,89.1,68.7
		c35.5,0,71.4-0.4,107.2,0.3c10.7,0.2,16.5-3.3,21.7-12.6c25.5-46.1,52-91.7,77.7-137.8c16.6-29.8,40.8-49.4,75.1-52.6
		c28.8-2.6,57.8-2.7,86.7-2.7c138.6-0.3,277.2-0.2,415.8-0.1c47.2,0.1,83.4,17.8,106.2,61.7c22.7,43.7,48.6,85.6,72.2,128.8
		c6,11,12.6,16.1,25.5,15.3c18.5-1.1,37.1-0.7,55.7,0.1c141.2,5.4,258.3,90.5,306,223.5c8.7,24.2,13.1,50,19.5,75 M1087.5,1590.2
		c266.3-1.8,483.2-211.5,484.1-483.3c0.9-270.2-216.7-483.6-482.3-484.6c-266.8-1.1-483.1,213.6-485,482
		C602.4,1370.9,819.2,1589,1087.5,1590.2z M504.7,695.4c0.3-56.8-45.6-103.5-102.1-103.8c-55.9-0.3-103.5,47.1-103.4,103
		c0,55.5,46,101.9,101.8,102.8C457.4,798.3,504.4,752.1,504.7,695.4z"/>
	<path fill-rule="evenodd" clip-rule="evenodd" d="M1417.6,1105.8c0.4,181.7-147.4,329.6-329.5,329.9
		c-181.8,0.3-329.5-147.4-329.8-329.5c-0.2-181.9,147.4-329.7,329.4-329.7C1269.9,776.5,1417.2,923.5,1417.6,1105.8z"/>
</g>
</svg>
