<?xml version="1.0" encoding="utf-8"?>
<!-- Generated by IcoMoon.io -->
<!DOCTYPE svg PUBLIC "-//W3C//DTD SVG 1.1//EN" "http://www.w3.org/Graphics/SVG/1.1/DTD/svg11.dtd">
<svg version="1.1" xmlns="http://www.w3.org/2000/svg" xmlns:xlink="http://www.w3.org/1999/xlink" viewBox="0 0 48 48" fill="#ffffff">
<path d="M18.636 34.634c-0.003 0.589-0.491 1.071-1.077 1.059-0.58-0.009-1.059-0.491-1.059-1.068 0-0.583 0.495-1.074 1.074-1.071 0.589 0.003 1.065 0.488 1.062 1.080z"></path>
<path d="M23.976 34.11c-2.773-0.012-5.021 2.221-5.043 5.009-0.018 2.77 2.236 5.037 5.024 5.052 2.767-0.018 5.021-2.2 5.030-5.024 0.012-2.81-2.251-5.027-5.012-5.037zM23.964 42.566c-1.89 0.003-3.425-1.532-3.429-3.425-0.003-1.89 1.532-3.429 3.422-3.429 1.893 0 3.425 1.529 3.429 3.422 0.006 1.89-1.529 3.429-3.422 3.431z"></path>
<path d="M38.524 29.237l-7.349-1.368v-3.425l-4.175 2.816h-5.974l-4.357-2.746v3.356h-0.030l-0.134 0.021-7.109 1.347c-2.276 0-4.117 2.106-4.117 4.703v8.107c0 2.597 1.86 3.565 4.135 3.565l14.697 2.024 14.321-1.83c2.27 0 4.208-1.162 4.208-3.756v-8.107c0.003-2.6-1.842-4.706-4.117-4.706zM33.254 43.054c-0.082 0.546-0.346 1.056-0.667 1.502-0.728 0.998-1.723 1.475-2.952 1.475-3.695 0.003-7.394 0-11.093 0-0.209 0-0.422 0-0.631-0.021-1.447-0.149-2.446-0.904-2.989-2.251-0.106-0.264-0.225-0.537-0.225-0.828v-7.816c0.009-0.021 0.018-0.043 0.024-0.067 0.137-0.792 0.57-1.35 1.305-1.675 0.046-0.018 0.085-0.094 0.091-0.149 0.058-0.491 0.316-0.731 0.81-0.737 0.379-0.003 0.758 0 1.141 0 0.577 0 0.78 0.152 0.925 0.713 0.37 0 0.743-0.006 1.114 0.003 0.112 0.003 0.173-0.033 0.225-0.13 0.267-0.479 0.54-0.953 0.807-1.432 0.173-0.31 0.425-0.513 0.78-0.546 0.297-0.027 0.601-0.027 0.901-0.027 1.441-0.003 2.882-0.003 4.324 0 0.491 0 0.868 0.185 1.104 0.64s0.504 0.889 0.749 1.338c0.064 0.115 0.13 0.167 0.267 0.158 0.191-0.012 0.385-0.006 0.58 0 1.468 0.055 2.685 0.941 3.18 2.324 0.091 0.252 0.155 0.449 0.221 0.707l0.009 6.821z"></path>
<path d="M26.74 8.229c0 0.006 0 0.006 0 0.006-0.027-0.006-0.061-0.006-0.088-0.012 0.027 0 0.061 0.006 0.088 0.006z"></path>
<path d="M28.029 8.384c-0.422-0.055-0.85-0.106-1.286-0.152-0.027-0.006-0.061-0.006-0.088-0.012 0.027 0 0.061 0.006 0.088 0.006 0.437 0.046 0.865 0.097 1.286 0.158z"></path>
<path d="M33.849 9.858v0.006c-0.006-0.006-0.015-0.012-0.021-0.012 0.006 0 0.015 0 0.021 0.006z"></path>
<path d="M30.918 26.303v0.012h0.428v-0.012h-0.428z"></path>
<path d="M25.523 26.303l-0.024 0.012v-0.012z"></path>
<path d="M20.993 13.675c0 0.573-0.501 1.038-1.12 1.038s-1.12-0.464-1.12-1.038c0-0.573 0.501-1.038 1.12-1.038s1.12 0.464 1.12 1.038z"></path>
<path d="M29.246 13.675c0 0.573-0.501 1.038-1.12 1.038-0.616 0-1.12-0.464-1.12-1.038s0.501-1.038 1.12-1.038c0.619 0 1.12 0.464 1.12 1.038z"></path>
<path d="M24.995 6.26c0.14 0.006 0.282 0.015 0.419 0.021-0.043-0.003-0.085-0.003-0.124-0.006-0.027 0-0.055-0.003-0.085-0.003-0.070-0.003-0.14-0.006-0.209-0.009-0.337-0.021-0.683-0.033-1.022-0.039-0.325 0.006-0.646 0.018-0.968 0.033v-0.046h1.99v0.049z"></path>
<path d="M29.452 6.721c-0.692-0.112-1.411-0.209-2.145-0.285 0.734 0.073 1.453 0.167 2.145 0.285z"></path>
<path d="M34.064 10.283v0.006c-0.006-0.006-0.015-0.012-0.021-0.012 0.006 0 0.015 0 0.021 0.006z"></path>
<path d="M26.955 8.654c-0.027 0-0.061-0.006-0.088-0.006 0.027 0.006 0.061 0.006 0.088 0.012 0.44 0.046 0.865 0.094 1.286 0.152-0.419-0.061-0.847-0.112-1.286-0.158zM26.955 8.654c-0.027 0-0.061-0.006-0.088-0.006 0.027 0.006 0.061 0.006 0.088 0.012 0.44 0.046 0.865 0.094 1.286 0.152-0.419-0.061-0.847-0.112-1.286-0.158zM26.955 8.654c-0.027 0-0.061-0.006-0.088-0.006 0.027 0.006 0.061 0.006 0.088 0.012 0.44 0.046 0.865 0.094 1.286 0.152-0.419-0.061-0.847-0.112-1.286-0.158zM26.955 8.654c-0.027 0-0.061-0.006-0.088-0.006 0.027 0.006 0.061 0.006 0.088 0.012 0.44 0.046 0.865 0.094 1.286 0.152-0.419-0.061-0.847-0.112-1.286-0.158zM26.955 8.654c-0.027 0-0.061-0.006-0.088-0.006 0.027 0.006 0.061 0.006 0.088 0.012 0.44 0.046 0.865 0.094 1.286 0.152-0.419-0.061-0.847-0.112-1.286-0.158zM26.955 8.654c-0.027 0-0.061-0.006-0.088-0.006 0.027 0.006 0.061 0.006 0.088 0.012 0.44 0.046 0.865 0.094 1.286 0.152-0.419-0.061-0.847-0.112-1.286-0.158zM26.955 8.654c-0.027 0-0.061-0.006-0.088-0.006 0.027 0.006 0.061 0.006 0.088 0.012 0.44 0.046 0.865 0.094 1.286 0.152-0.419-0.061-0.847-0.112-1.286-0.158z"></path>
<path d="M36.085 9.16l-0.146-0.482-0.109-0.052c0.488 1.311 0.762 2.725 0.771 4.199 0-0.030 0-0.061 0-0.091 0.003-1.205-0.17-2.406-0.516-3.574zM34.064 10.289v-0.006c-0.006-0.006-0.015-0.006-0.021-0.006 0.006 0 0.015 0.006 0.021 0.012zM26.867 8.648c0.027 0.006 0.061 0.006 0.088 0.012 0.44 0.046 0.865 0.094 1.286 0.152-0.422-0.061-0.85-0.112-1.286-0.158-0.027 0-0.061-0.006-0.088-0.006zM11.921 9.16c-0.349 1.168-0.522 2.373-0.522 3.574 0 0.030 0 0.061 0 0.091 0.009-1.475 0.282-2.888 0.771-4.199l-0.109 0.052-0.14 0.482z"></path>
<path d="M24.995 6.217v0.049c-0.337-0.021-0.683-0.033-1.022-0.039-0.325 0.006-0.646 0.018-0.968 0.033v-0.046h1.99z"></path>
<path d="M24 21.090c-2.276 0-4.123-1.423-4.123-3.171h1.899c0 0.819 0.998 1.487 2.224 1.487s2.224-0.667 2.224-1.487h1.902c0 1.748-1.851 3.171-4.126 3.171z"></path>
<path d="M35.833 8.626c-1.772-4.745-6.399-8.131-11.83-8.131s-10.058 3.383-11.83 8.128c-0.488 1.311-0.762 2.725-0.771 4.199 0.046 6.854 5.589 12.422 12.431 12.513 0.058 0 0.112 0 0.17 0 0.055 0 0.109 0 0.164 0 6.845-0.088 12.391-5.656 12.44-12.509-0.012-1.475-0.285-2.888-0.774-4.199zM23.97 23.882c-5.707 0-10.835-5.258-10.835-10.968 0-0.231 0.516-0.643 0.534-0.868 1.471 0.437 3.753 0.501 6.241 0.091 3.431-0.567 6.196-1.86 6.899-3.125 0.561 0.68 1.769 1.453 3.271 2.030 1.769 0.68 3.429 0.871 4.214 0.561 0.039 0.376 0.78 0.843 0.78 1.223 0 5.707-5.392 11.056-11.105 11.056z"></path>
</svg>
