<?xml version="1.0" encoding="utf-8"?>
<!-- Generator: Adobe Illustrator 16.0.0, SVG Export Plug-In . SVG Version: 6.00 Build 0)  -->
<!DOCTYPE svg PUBLIC "-//W3C//DTD SVG 1.1//EN" "http://www.w3.org/Graphics/SVG/1.1/DTD/svg11.dtd">
<svg version="1.1" id="Capa_1" xmlns="http://www.w3.org/2000/svg" xmlns:xlink="http://www.w3.org/1999/xlink" x="0px" y="0px"
	 width="2048px" height="2048px" viewBox="0 0 2048 2048" enable-background="new 0 0 2048 2048" xml:space="preserve">
<g>
	<circle cx="885.2" cy="653.9" r="332.3"/>
	<path d="M951.6,1579.1H257.1v-173.7c0-1.6,0-3.2,0.1-4.8c4.9-180,283.6-325.2,626.8-325.2c21.4,0,42.5,0.6,63.3,1.7
		c-9.6,16.9-18.2,34.3-25.8,52.3c-26.1,61.8-39.4,127.3-39.4,194.9c0,67.6,13.2,133.2,39.4,194.9
		C930.2,1539.9,940.3,1559.9,951.6,1579.1z"/>
	<path d="M1382.8,912.2c-138.8,0-261.7,68.9-336.4,174.4c-47.6,67.2-75.6,149.2-75.6,237.7c0,96.1,33.1,184.6,88.4,254.8
		c75.5,95.7,192.5,157.2,323.6,157.2c227.2,0,412-184.8,412-412C1794.9,1097.1,1610,912.2,1382.8,912.2z M1625.1,1344.4
		c0,5.5-2,10.2-6,14.2c-4,4-8.7,6-14.2,6h-181.7v181.7c0,5.5-2,10.2-6,14.2c-4,4-8.7,6-14.2,6h-40.4c-5.4,0-10.2-2-14.2-6
		c-4-4-6-8.7-6-14.2v-181.7h-181.7c-5.5,0-10.2-2-14.2-6c-4-4-6-8.7-6-14.2v-40.4c0-5.5,2-10.2,6-14.2c4-4,8.7-6,14.2-6h181.7
		v-181.7c0-5.5,2-10.2,6-14.2c4-4,8.7-6,14.2-6h40.4c5.5,0,10.2,2,14.2,6c4,4,6,8.7,6,14.2v181.7H1605c5.5,0,10.2,2,14.2,6
		c4,4,6,8.7,6,14.2V1344.4z"/>
</g>
</svg>
