<?xml version="1.0" encoding="utf-8"?>
<!-- Generator: Adobe Illustrator 16.0.0, SVG Export Plug-In . SVG Version: 6.00 Build 0)  -->
<!DOCTYPE svg PUBLIC "-//W3C//DTD SVG 1.1//EN" "http://www.w3.org/Graphics/SVG/1.1/DTD/svg11.dtd">
<svg version="1.1" id="Capa_1" xmlns="http://www.w3.org/2000/svg" xmlns:xlink="http://www.w3.org/1999/xlink" x="0px" y="0px"
	 width="2048px" height="2048px" viewBox="0 0 2048 2048" enable-background="new 0 0 2048 2048" xml:space="preserve">
<g>
	<path d="M851.4,1024l605.7-605.7c10.3-10.3,15.4-22.1,15.4-35.5c0-13.3-5.1-25.2-15.4-35.4l-77-77c-10.3-10.3-22.1-15.4-35.4-15.4
		c-13.4,0-25.2,5.2-35.5,15.4L590.9,988.6c-10.3,10.3-15.4,22.1-15.4,35.5c0,13.3,5.1,25.2,15.4,35.4l718.2,718.2
		c10.3,10.3,22.1,15.4,35.4,15.4s25.2-5.1,35.4-15.4l77.1-77c10.3-10.3,15.4-22.1,15.4-35.5c0-13.3-5.1-25.2-15.4-35.4L851.4,1024z"
		/>
</g>
</svg>
