<?xml version="1.0" encoding="utf-8"?>
<!-- Generator: Adobe Illustrator 16.0.0, SVG Export Plug-In . SVG Version: 6.00 Build 0)  -->
<!DOCTYPE svg PUBLIC "-//W3C//DTD SVG 1.1//EN" "http://www.w3.org/Graphics/SVG/1.1/DTD/svg11.dtd">
<svg version="1.1" id="Capa_1" xmlns="http://www.w3.org/2000/svg" xmlns:xlink="http://www.w3.org/1999/xlink" x="0px" y="0px"
	 width="2048px" height="2048px" viewBox="0 0 2048 2048" enable-background="new 0 0 2048 2048" xml:space="preserve">
<g>
	<path fill-rule="evenodd" clip-rule="evenodd" d="M913.5,1214c72.5,0,145.9,0,220.6,0c0,35,0,69.1,0,104.6c-72.9,0-145.5,0-220.6,0
		C913.5,1283.6,913.5,1249.5,913.5,1214z"/>
	<path fill-rule="evenodd" clip-rule="evenodd" d="M1792,1108.9c-512.2,0-1022.7,0-1535.5,0c0-37.1,0-73.2,0-109.3
		c0-93,0.3-185.9,0.1-278.9c-0.1-52.2,30.9-85.8,81-85.9c112.1-0.3,224.1-0.2,336.2-0.4c5.7,0,11.5-0.6,18.3-1c0-62,0-122.8,0-183.7
		c0-40.3,15.5-58.1,54-58.4c129.8-0.9,259.5-0.9,389.2-1.2c53.1-0.1,106.1-0.3,159.2,0.3c48.5,0.4,62.6,16.2,62.4,67.2
		c-0.2,58.3-0.1,116.7-0.1,177c43,0,84.8,0,126.5,0c73.7,0,147.4-0.1,221.2,0.1c59.1,0.1,88,30.5,88,91.8c0,122.5,0,245,0,367.5
		C1792.7,1098.4,1792.3,1102.6,1792,1108.9z M786.2,633.7c159.1,0,318.1,0,476.6,0c0-42.4,0-83.9,0-126c-159.5,0-317.3,0-476.6,0
		C786.2,549.9,786.2,590.9,786.2,633.7z"/>
	<path fill-rule="evenodd" clip-rule="evenodd" d="M258.2,1213.7c190.9,0,380.2,0,568,0c0,51.5-0.2,102.2,0.1,153
		c0.1,35.9,17.7,54.8,52.3,54.9c80.2,0.4,160.5,0,240.7,0c17.1,0,34.2,0.4,51.3,0.1c33.4-0.8,52.4-20.8,52.6-55.5
		c0.2-44.3,0.1-88.7,0.1-133c0-6,0-12,0-19.1c190.2,0,378.7,0,569.5,0c0,33.8,0,66.9,0,99.9c-0.1,131.1,0,262.3-0.2,393.4
		c-0.1,52.4-31.4,84.8-82.1,84.8c-342.2,0.1-684.3,0-1026.4,0.1c-111.5,0-222.9,0.2-334.5,0.1c-11.1,0-22.6,0-33.3-2.6
		c-36.1-8.4-59.3-38.4-59.3-76.7c-0.3-161.9-0.2-323.9-0.2-485.8C256.6,1222.8,257.7,1218.2,258.2,1213.7z"/>
	<path fill-rule="evenodd" clip-rule="evenodd" d="M913.5,1214c72.5,0,145.9,0,220.6,0"/>
</g>
</svg>
