<?xml version="1.0" encoding="utf-8"?>
<!-- Generator: Adobe Illustrator 16.0.0, SVG Export Plug-In . SVG Version: 6.00 Build 0)  -->
<!DOCTYPE svg PUBLIC "-//W3C//DTD SVG 1.1//EN" "http://www.w3.org/Graphics/SVG/1.1/DTD/svg11.dtd">
<svg version="1.1" id="Capa_1" xmlns="http://www.w3.org/2000/svg" xmlns:xlink="http://www.w3.org/1999/xlink" x="0px" y="0px"
	 width="2048px" height="2048px" viewBox="0 0 2048 2048" enable-background="new 0 0 2048 2048" xml:space="preserve">
<path d="M1475.1,419.3c-17.8,0-32.9,6.1-45.1,18.3l-406,406l-406-406c-12.2-12.2-27.2-18.3-45.1-18.3c-17.9,0-32.9,6.1-45.1,18.3
	l-90.2,90.2c-12.2,12.2-18.3,27.2-18.3,45.1c0,17.8,6.1,32.9,18.3,45.1l406,406l-405.9,405.9c-12.3,12.2-18.4,27.3-18.3,45.1
	c-0.1,17.9,6.1,32.9,18.3,45.1l90.2,90.2c12.2,12.2,27.3,18.4,45.1,18.3c17.8,0,32.9-6.1,45.1-18.3l405.9-405.9l405.9,405.9
	c12.2,12.3,27.3,18.4,45.1,18.3c17.9,0,32.9-6.1,45.1-18.3l90.2-90.2c12.2-12.2,18.3-27.2,18.3-45.1c0-17.8-6.1-32.9-18.3-45.1
	L1204.4,1024l406-406c12.2-12.2,18.3-27.3,18.3-45.1c0-17.8-6.1-32.9-18.3-45.1l-90.2-90.2C1507.9,425.4,1492.9,419.3,1475.1,419.3z
	"/>
</svg>
