<?xml version="1.0" encoding="utf-8"?>
<!-- Generator: Adobe Illustrator 16.0.0, SVG Export Plug-In . SVG Version: 6.00 Build 0)  -->
<!DOCTYPE svg PUBLIC "-//W3C//DTD SVG 1.1//EN" "http://www.w3.org/Graphics/SVG/1.1/DTD/svg11.dtd">
<svg version="1.1" id="Capa_1" xmlns="http://www.w3.org/2000/svg" xmlns:xlink="http://www.w3.org/1999/xlink" x="0px" y="0px"
	 width="2048px" height="2048px" viewBox="0 0 2048 2048" enable-background="new 0 0 2048 2048" xml:space="preserve">
<g>
	<path fill-rule="evenodd" clip-rule="evenodd" d="M1792,891.8c-67,148.8-141.9,293.4-231.8,429.8c-15.4,23.3-33.3,45.3-52.1,65.9
		c-31.9,34.9-71.3,52.4-119.9,52c-152.4-1.1-304.8,0.4-457.2-0.8c-111.3-0.8-205.4-39.7-272.8-132.2
		c-39.6-54.4-50.4-118.9-63.1-182.7C559.5,946.5,524.3,769,487.6,591.8c-13.9-66.8-49.3-94.6-117.5-97.6
		c-38.9-1.7-76.4-6.3-101.1-41.7c-6.6-9.4-11.6-20-17.3-30.1c0-12,0-24.1,0-36.1C281.2,318.8,318,302.2,406,317
		c156,26.1,233.2,107.7,266.2,278c35.6,183.5,72.5,366.8,109.3,550c14.6,72.4,62.2,113.2,137.2,113.9c148.3,1.4,296.7,1.2,445,0.1
		c11.4-0.1,27.4-8.7,33.6-18.3c38.1-58.7,76.2-117.7,110.3-178.8c37-66.4,70.7-134.7,103.9-203c18.7-38.3,42.2-68.3,88.4-70.4
		c48-2.1,73.6,27.9,92,67C1792,867.7,1792,879.8,1792,891.8z"/>
	<g>
		<g>
			<path d="M1195.1,850.8h-123.8c-5.5,0-10.3,2.1-14.4,6.2c-4.1,4.1-6.2,8.9-6.2,14.4v123.8c0,5.5,2.1,10.3,6.2,14.4
				c4.1,4.1,8.9,6.2,14.4,6.2h123.8c5.5,0,10.3-2.1,14.4-6.2c4.2-4.1,6.2-8.9,6.2-14.4V871.5c0-5.5-2-10.3-6.2-14.4
				C1205.5,852.9,1200.6,850.8,1195.1,850.8z"/>
			<path d="M1357.6,480.3c-14.1-26-32.3-47.9-54.7-65.8c-22.3-17.9-47.5-32.2-75.3-42.8c-27.8-10.7-55.5-16-83-16
				c-104.5,0-184.3,45.7-239.3,137.2c-2.7,4.5-3.7,9.3-2.8,14.4c0.9,5.2,3.5,9.5,8,12.9l84.6,64.5c4.5,2.7,8.8,4.1,12.9,4.1
				c6.2,0,11.5-2.8,16-8.3c24.8-30.9,43.1-50.7,55.2-59.3c14.8-10,33.3-15,55.7-15c21,0,39.5,5.5,55.5,16.5
				c15.9,11,23.9,23.7,23.9,38.2c0,16.2-4.3,29.2-12.9,39.2c-8.6,10-23,19.6-43.3,28.9c-26.8,12-51.4,30.7-73.7,56
				c-22.3,25.3-33.5,52.2-33.5,80.7v23.2c0,6.5,1.8,13,5.4,19.3c3.6,6.4,8,9.5,13.2,9.5h123.8c5.5,0,10.3-2.7,14.4-8
				c4.1-5.3,6.2-10.9,6.2-16.7c0-8.6,4.7-20.1,14.2-34.6c9.5-14.4,21.2-25.6,35.3-33.5c13.4-7.6,23.9-13.7,31.5-18.3
				c7.6-4.6,17.5-12.1,29.7-22.4c12.2-10.3,21.6-20.5,28.3-30.7c6.7-10.1,12.7-23.3,18.1-39.5c5.3-16.2,8-33.5,8-52.1
				C1378.7,533.5,1371.7,506.2,1357.6,480.3z"/>
		</g>
	</g>
	<circle fill-rule="evenodd" clip-rule="evenodd" cx="869.7" cy="1636.6" r="155.4"/>
	<circle fill-rule="evenodd" clip-rule="evenodd" cx="1411.2" cy="1636.6" r="155.4"/>
</g>
</svg>
