<?xml version="1.0" encoding="utf-8"?>
<!-- Generator: Adobe Illustrator 16.0.0, SVG Export Plug-In . SVG Version: 6.00 Build 0)  -->
<!DOCTYPE svg PUBLIC "-//W3C//DTD SVG 1.1//EN" "http://www.w3.org/Graphics/SVG/1.1/DTD/svg11.dtd">
<svg version="1.1" id="Capa_1" xmlns="http://www.w3.org/2000/svg" xmlns:xlink="http://www.w3.org/1999/xlink" x="0px" y="0px"
	 width="2048px" height="2048px" viewBox="0 0 2048 2048" enable-background="new 0 0 2048 2048" xml:space="preserve">
<g>
	<path fill-rule="evenodd" clip-rule="evenodd" d="M1792,887.7c-66.9,148.6-141.7,293.1-231.5,429.3c-15.4,23.3-33.2,45.2-52.1,65.8
		c-31.8,34.8-71.2,52.3-119.8,51.9c-152.2-1.1-304.4,0.4-456.6-0.8c-111.2-0.8-205.1-39.6-272.4-132.1
		c-39.6-54.4-50.3-118.7-63.1-182.4C561,942.3,525.9,765,489.2,588.1c-13.8-66.8-49.2-94.5-117.4-97.5c-38.9-1.7-76.3-6.3-101-41.6
		c-6.6-9.4-11.6-20-17.3-30c0-12,0-24,0-36c29.4-67.5,66.3-84,154.2-69.3c155.8,26.1,232.9,107.5,265.8,277.7
		c35.6,183.3,72.4,366.3,109.2,549.3c14.6,72.4,62.1,113,137.1,113.8c148.1,1.4,296.3,1.2,444.5,0.1c11.4-0.1,27.3-8.7,33.5-18.3
		c38.1-58.6,76.1-117.5,110.1-178.5c37-66.3,70.6-134.5,103.8-202.7c18.7-38.3,42.2-68.3,88.3-70.3c48-2.1,73.5,27.9,91.9,67
		C1792,863.6,1792,875.7,1792,887.7z"/>
	<path fill-rule="evenodd" clip-rule="evenodd" d="M1024.3,665.7c3.7-60.2,7.1-117,10.8-173.9c1.2-18.9,2.7-37.9,5.1-56.7
		c5.5-42.3,11.7-47.8,54-58.2c40.2-9.8,79.9-8.5,117.4,8.1c12,5.3,25.7,21.2,27.1,33.5c8,70.5,12.5,141.4,18.1,212.1
		c0.9,10.7,1.3,21.5,2.2,35c41.2,0,80.1-1.6,118.7,0.9c14,0.9,33.8,8.3,39.2,18.8c5.4,10.5,0.9,32.7-7.5,42.7
		c-79,92.9-159.6,184.5-240.3,276c-17,19.3-37.7,19.8-54.6,0.7c-82.2-92.8-164.4-185.6-244.5-280.2c-23.9-28.3-7.3-57.7,30.3-58.6
		C940.2,664.9,980.2,665.7,1024.3,665.7z"/>
	<circle fill-rule="evenodd" clip-rule="evenodd" cx="868.3" cy="1636.6" r="155.4"/>
	<circle fill-rule="evenodd" clip-rule="evenodd" cx="1409.8" cy="1636.6" r="155.4"/>
</g>
</svg>
