<?xml version="1.0" encoding="utf-8"?>
<!-- Generator: Adobe Illustrator 16.0.0, SVG Export Plug-In . SVG Version: 6.00 Build 0)  -->
<!DOCTYPE svg PUBLIC "-//W3C//DTD SVG 1.1//EN" "http://www.w3.org/Graphics/SVG/1.1/DTD/svg11.dtd">
<svg version="1.1" id="Capa_1" xmlns="http://www.w3.org/2000/svg" xmlns:xlink="http://www.w3.org/1999/xlink" x="0px" y="0px"
	 viewBox="0 0 2048 2048" enable-background="new 0 0 2048 2048" xml:space="preserve" fill="#ffffff">
<g>
	<g>
		<path d="M1190,1337.4c108.8-45.8,194.7-108.3,257.6-187.3c62.9-79,94.4-165,94.4-258.1c0-93-31.5-179.1-94.4-258.1
			c-62.9-79-148.8-141.5-257.6-187.3c-108.8-45.9-227.1-68.8-355-68.8c-127.8,0-246.2,23-355,68.8C371.2,492.6,285.3,555,222.4,634
			C159.5,713,128,799,128,892.1c0,79.7,23.8,154.7,71.3,225c47.5,70.3,112.8,129.5,195.8,177.7c-6.7,16.1-13.6,30.8-20.6,44.2
			c-7,13.4-15.4,26.3-25.1,38.7c-9.7,12.4-17.2,22.1-22.6,29.1c-5.4,7-14.1,16.9-26.1,29.6c-12,12.8-19.8,21.1-23.1,25.1
			c0-0.7-1.3,0.9-4,4.6c-2.7,3.7-4.2,5.3-4.5,5c-0.3-0.4-1.7,1.3-4,5c-2.3,3.7-3.5,5.5-3.5,5.5l-2.5,5c-1,2-1.7,4-2,6
			c-0.3,2-0.5,4.2-0.5,6.5c0,2.3,0.3,4.5,1,6.5c1.3,8.7,5.2,15.7,11.5,21.1c6.4,5.3,13.2,8,20.6,8h3c33.4-4.7,62.2-10.1,86.3-16.1
			c103.1-26.8,196.2-69.6,279.2-128.6c60.2,10.7,119.2,16.1,176.7,16.1C962.9,1406.3,1081.2,1383.3,1190,1337.4z"/>
		<path d="M1856.3,1374.6c47.6-70,71.3-145.1,71.3-225.5c0-82.3-25.1-159.4-75.3-231c-50.2-71.6-118.5-131.2-204.9-178.7
			c15.4,50.2,23.1,101.1,23.1,152.7c0,89.7-22.4,174.7-67.3,255.1c-44.8,80.4-109.2,151.3-192.8,212.9
			c-77.7,56.3-166,99.4-265.1,129.6c-99,30.1-202.5,45.2-310.3,45.2c-20.1,0-49.6-1.3-88.4-4c134.6,88.3,292.5,132.5,474,132.5
			c57.6,0,116.5-5.4,176.8-16.1c83,58.9,176.1,101.8,279.2,128.6c24.1,6,52.9,11.4,86.3,16.1c8.1,0.7,15.4-1.7,22.1-7.1
			c6.7-5.4,11.1-12.7,13.1-22.1c-0.3-4,0-6.2,1-6.5c0.9-0.3,0.8-2.5-0.5-6.5c-1.3-4-2-6-2-6l-2.5-5c-0.7-1.3-1.8-3.2-3.5-5.5
			c-1.7-2.3-3-4-4-5c-1-1-2.5-2.7-4.5-5c-2-2.3-3.3-3.8-4-4.6c-3.4-4-11.1-12.4-23.1-25.1c-12.1-12.7-20.8-22.6-26.1-29.6
			c-5.4-7-12.9-16.7-22.6-29.1c-9.7-12.4-18.1-25.3-25.1-38.7c-7-13.4-13.9-28.1-20.6-44.2
			C1743.6,1503.7,1808.8,1444.6,1856.3,1374.6z"/>
	</g>
</g>
</svg>
