<?xml version="1.0" encoding="utf-8"?>
<!-- Generator: Adobe Illustrator 16.0.0, SVG Export Plug-In . SVG Version: 6.00 Build 0)  -->
<!DOCTYPE svg PUBLIC "-//W3C//DTD SVG 1.1//EN" "http://www.w3.org/Graphics/SVG/1.1/DTD/svg11.dtd">
<svg version="1.1" id="Capa_1" xmlns="http://www.w3.org/2000/svg" xmlns:xlink="http://www.w3.org/1999/xlink" x="0px" y="0px"
	 viewBox="0 0 2048 2048" enable-background="new 0 0 2048 2048" xml:space="preserve" fill="#ffffff">
<g>
	<path d="M422.2,889.1c32.9,0,59.8-13,80.6-39l42.9,44.2c-34,38.3-74.1,57.5-120.3,57.5c-46.2,0-84.2-14.6-114.1-43.7
		c-29.9-29.2-44.8-66-44.8-110.4c0-44.5,15.2-81.6,45.7-111.3c30.5-29.7,67.7-44.6,111.7-44.6c49.2,0,90.3,18.7,123.5,56.2
		L505.9,745c-21.2-26.3-47.5-39.5-78.9-39.5c-25.2,0-46.7,8.2-64.5,24.7c-17.9,16.4-26.8,38.6-26.8,66.5c0,27.9,8.4,50.3,25.3,67.1
		C377.8,880.6,398.2,889.1,422.2,889.1z"/>
	<path d="M784.7,648.5h66.9v299.8h-66.9V830.3H665.4v117.9h-66.9V648.5h66.9v125.2h119.2V648.5z"/>
	<path d="M1141.5,648.5v59.6H992.2v61.8h134.2v57H992.2v62.2h154v59.2H925.3V648.5H1141.5z"/>
	<path d="M1343.5,889.1c32.9,0,59.8-13,80.6-39l42.9,44.2c-34,38.3-74.1,57.5-120.3,57.5c-46.2,0-84.2-14.6-114.1-43.7
		c-29.9-29.2-44.8-66-44.8-110.4c0-44.5,15.2-81.6,45.7-111.3c30.5-29.7,67.7-44.6,111.7-44.6c49.2,0,90.3,18.7,123.5,56.2
		l-41.6,47.2c-21.2-26.3-47.5-39.5-78.9-39.5c-25.2,0-46.7,8.2-64.5,24.7c-17.9,16.4-26.8,38.6-26.8,66.5c0,27.9,8.4,50.3,25.3,67.1
		C1299,880.6,1319.5,889.1,1343.5,889.1z"/>
	<path d="M1519.8,648.5h66.9v123.1l113.2-123.1h82.8L1663.4,781c10.3,14.3,29.3,41,57,80c27.7,39,48.5,68.1,62.2,87.3h-78.1
		l-87.9-118.4l-30,33.5v84.9h-66.9V648.5z"/>
</g>
<g>
	<path d="M855.5,1159.9h55.1v247h-55.1V1159.9z"/>
	<path d="M1144.2,1159.9h55.1v247h-55.1l-117.7-154.8v154.8h-55.1v-247h51.6l121.2,159V1159.9z"/>
</g>
</svg>
