<?xml version="1.0" encoding="utf-8"?>
<!-- Generator: Adobe Illustrator 16.0.0, SVG Export Plug-In . SVG Version: 6.00 Build 0)  -->
<!DOCTYPE svg PUBLIC "-//W3C//DTD SVG 1.1//EN" "http://www.w3.org/Graphics/SVG/1.1/DTD/svg11.dtd">
<svg version="1.1" id="Capa_1" xmlns="http://www.w3.org/2000/svg" xmlns:xlink="http://www.w3.org/1999/xlink" x="0px" y="0px"
	 viewBox="0 0 2048 2048" enable-background="new 0 0 2048 2048" xml:space="preserve" fill="#ffffff">
<g>
	<g>
		<path d="M414.1,890.7c33.3,0,60.5-13,81.6-39l43.4,44.2c-34.5,38.3-75.1,57.5-121.8,57.5c-46.8,0-85.3-14.6-115.5-43.7
			c-30.3-29.2-45.4-66-45.4-110.4c0-44.5,15.4-81.6,46.2-111.3c30.8-29.7,68.5-44.6,113.1-44.6c49.8,0,91.5,18.7,125.1,56.2
			l-42.1,47.2c-21.4-26.3-48.1-39.5-79.9-39.5c-25.5,0-47.3,8.2-65.4,24.7c-18.1,16.4-27.1,38.6-27.1,66.5
			c0,27.9,8.5,50.3,25.6,67.1C369.1,882.2,389.8,890.7,414.1,890.7z"/>
		<path d="M781,650.1h67.7v299.8H781V831.9H660.3v117.9h-67.7V650.1h67.7v125.2H781V650.1z"/>
		<path d="M1142.3,650.1v59.6H991.2v61.8h135.9v57H991.2v62.2h155.9v59.2H923.5V650.1H1142.3z"/>
		<path d="M1346.8,890.7c33.3,0,60.5-13,81.6-39l43.4,44.2c-34.5,38.3-75.1,57.5-121.8,57.5c-46.8,0-85.3-14.6-115.5-43.7
			c-30.3-29.2-45.4-66-45.4-110.4c0-44.5,15.4-81.6,46.2-111.3c30.8-29.7,68.5-44.6,113.1-44.6c49.8,0,91.5,18.7,125.1,56.2
			l-42.1,47.2c-21.4-26.3-48.1-39.5-79.9-39.5c-25.5,0-47.3,8.2-65.4,24.7c-18.1,16.4-27.1,38.6-27.1,66.5
			c0,27.9,8.5,50.3,25.6,67.1C1301.8,882.2,1322.5,890.7,1346.8,890.7z"/>
		<path d="M1525.3,650.1h67.7v123.1l114.6-123.1h83.8l-120.7,132.5c10.4,14.3,29.7,41,57.8,80c28.1,39,49.1,68.1,63,87.3h-79
			l-89-118.4l-30.4,33.5v84.9h-67.7V650.1z"/>
	</g>
	<g>
		<path d="M867.2,1374.4c-25.5,24.4-56.9,36.6-94.2,36.6c-37.3,0-68.7-12.2-94.2-36.6c-25.5-24.4-38.3-54.7-38.3-91
			c0-36.3,12.8-66.6,38.3-91c25.5-24.4,56.9-36.6,94.2-36.6c37.3,0,68.7,12.2,94.2,36.6c25.5,24.4,38.3,54.7,38.3,91
			C905.5,1319.7,892.7,1350,867.2,1374.4z M848.1,1283.6c0-22-7.2-40.8-21.7-56.4c-14.4-15.5-32.2-23.3-53.2-23.3
			c-21.1,0-38.8,7.8-53.2,23.3c-14.4,15.5-21.7,34.3-21.7,56.4c0,22,7.2,40.8,21.7,56.2c14.4,15.4,32.2,23.1,53.2,23.1
			c21.1,0,38.8-7.7,53.2-23.1C840.8,1324.3,848.1,1305.6,848.1,1283.6z"/>
		<path d="M1019.9,1344.7c9.4,11.4,22,17.1,37.9,17.1c15.9,0,28.5-5.7,37.7-17.1c9.3-11.4,13.9-27,13.9-46.8v-136.4h56.3v138.2
			c0,35.8-10.1,63.3-30.3,82.5c-20.2,19.2-46.1,28.8-77.6,28.8c-31.5,0-57.5-9.7-77.8-29c-20.3-19.3-30.5-46.8-30.5-82.3v-138.2
			h56.3v136.4C1005.8,1317.7,1010.5,1333.3,1019.9,1344.7z"/>
		<path d="M1331,1209.2v199.3h-56.3v-199.3h-71.5v-47.7h199.3v47.7H1331z"/>
	</g>
</g>
</svg>
