<?xml version="1.0" encoding="utf-8"?>
<!-- Generator: Adobe Illustrator 16.0.0, SVG Export Plug-In . SVG Version: 6.00 Build 0)  -->
<!DOCTYPE svg PUBLIC "-//W3C//DTD SVG 1.1//EN" "http://www.w3.org/Graphics/SVG/1.1/DTD/svg11.dtd">
<svg version="1.1" id="Capa_1" xmlns="http://www.w3.org/2000/svg" xmlns:xlink="http://www.w3.org/1999/xlink" x="0px" y="0px"
	 width="2048px" height="2048px" viewBox="0 0 2048 2048" enable-background="new 0 0 2048 2048" xml:space="preserve">
<path d="M1655.1,702.3l-573.8,573.8l-1.1,1.1l-90.2,90.2c-0.4,0.4-14.2,13.4-14.5,13.8l-6,4.5l-10.3,4.8l-4.8,0.9
	c-6.5-0.1-6.5-0.1-13.7-1.4c-15-2.8-28.7-10.3-40.9-22.5l-90.2-90.2L513.2,980.8c-5.1-5.1-5-14,0.2-26.6c5.2-12.6,13.9-25,26.1-37.3
	l90.2-90.2c12.2-12.2,24.7-21,37.3-26.2c12.6-5.2,21.5-5.3,26.6-0.2l251.3,251.3l529.8-529.8c8.4-8.4,20.1-11.1,35.1-8.3
	c15,2.8,28.7,10.3,40.9,22.5l90.2,90.2c12.2,12.2,19.8,25.8,22.6,40.9C1666.3,682.2,1663.5,693.9,1655.1,702.3z"/>
</svg>
