<?xml version="1.0" encoding="utf-8"?>
<!-- Generator: Adobe Illustrator 16.0.0, SVG Export Plug-In . SVG Version: 6.00 Build 0)  -->
<!DOCTYPE svg PUBLIC "-//W3C//DTD SVG 1.1//EN" "http://www.w3.org/Graphics/SVG/1.1/DTD/svg11.dtd">
<svg version="1.1" id="Capa_1" xmlns="http://www.w3.org/2000/svg" xmlns:xlink="http://www.w3.org/1999/xlink" x="0px" y="0px"
	 width="2048px" height="2048px" viewBox="0 0 2048 2048" enable-background="new 0 0 2048 2048" xml:space="preserve">
<g>
	<g>
		<path d="M1664.9,1006.8c0,294.3-239.3,533.8-533.6,533.8c-98.1,0-190.2-26.7-269.2-73.2c-1.7,2.2-3.7,4.3-5.6,6.3l-287.2,287.2
			c-21,21-48.7,31.6-76.5,31.6c-27.7,0-55.4-10.6-76.6-31.6c-42.2-42.4-42.2-110.9,0-153.3l285-284.8
			c-65.2-88.6-103.7-197.9-103.7-316c0-162.2,72.6-313.6,198.8-415.4c22.5-18.2,46.1-34.4,70.6-48.5c5.2,52.4,19.5,105.7,38.8,157
			c-4.5,3.3-9.1,6.5-13.4,10.2c-90.5,72.8-142.3,180.8-142.3,296.7c0,210.3,171.1,381.4,381.4,381.4
			c210.1,0,381.2-171.1,381.2-381.4c0-108.5-46.6-212.2-127.5-284.6c-3.7-3.3-7.6-6.3-11.5-9.5c20.1-51.1,35.7-104.6,42.2-157.4
			c24.9,15.6,48.8,33.3,70.8,53.3C1599.7,709.7,1664.9,854.8,1664.9,1006.8z"/>
	</g>
	<path d="M1141.2,273.6c-129.2,0-234,104.8-234,234c0,234,234,514.8,234,514.8s234-280.8,234-514.8
		C1375.3,378.3,1270.5,273.6,1141.2,273.6z M1141.2,648c-77.6,0-140.4-62.9-140.4-140.4c0-77.5,62.9-140.4,140.4-140.4
		c77.5,0,140.4,62.9,140.4,140.4C1281.6,585.1,1218.8,648,1141.2,648z"/>
</g>
</svg>
