<?xml version="1.0" encoding="utf-8"?>
<!-- Generator: Adobe Illustrator 16.0.0, SVG Export Plug-In . SVG Version: 6.00 Build 0)  -->
<!DOCTYPE svg PUBLIC "-//W3C//DTD SVG 1.1//EN" "http://www.w3.org/Graphics/SVG/1.1/DTD/svg11.dtd">
<svg version="1.1" id="Capa_1" xmlns="http://www.w3.org/2000/svg" xmlns:xlink="http://www.w3.org/1999/xlink" x="0px" y="0px"
	 viewBox="0 0 2048 2048" enable-background="new 0 0 2048 2048" xml:space="preserve" fill="#ffffff">
<g>
	<path fill-rule="evenodd" clip-rule="evenodd" d="M1724.1,1359.8c-459.6,0-913.2,0-1366.1,0c-38.4-353.6,289.6-709.9,670.6-716.5
		C1447.2,636,1734,1004.1,1724.1,1359.8z M933.4,788.7c-116.4-0.6-349.1,160-372.7,253.6c-6.4,25.2,6.3,70.6,24.9,83.8
		c18.8,13.3,70,9.9,82.6-6.7c72.3-95.4,162.1-158.9,270.2-201c19.5-7.6,47.7-61.2,37.1-86.2C966,809.9,952.1,794.1,933.4,788.7z"/>
	<path fill-rule="evenodd" clip-rule="evenodd" d="M1151.6,385c27,7.3,55.4,44.5,79.2,65.1c-22.1,21.9-44.3,46.1-67.1,64.6
		c-37.8,30.7-84.8,66-127.4,65.8c-42.9-0.2-91-33.3-127.7-66.5c-20.5-18.6-40.1-40.7-59.9-61.5c20.1-21,58.7-66,82.8-67.4
		c40.3-2.4,65,0.5,108.2,0.5"/>
	<path fill-rule="evenodd" clip-rule="evenodd" d="M1922,1716.8c-604,0-1180.3,0-1794,0c0-40.7,0-77.2,0-91.2
		c72.1-59.2,133-109.2,220.9-181.4c445,0,931.8,0,1383.3,0c78.2,68.7,131.9,119.2,188.6,169"/>
</g>
</svg>
