<?xml version="1.0" encoding="utf-8"?>
<!-- Generator: Adobe Illustrator 16.0.0, SVG Export Plug-In . SVG Version: 6.00 Build 0)  -->
<!DOCTYPE svg PUBLIC "-//W3C//DTD SVG 1.1//EN" "http://www.w3.org/Graphics/SVG/1.1/DTD/svg11.dtd">
<svg version="1.1" id="Capa_1" xmlns="http://www.w3.org/2000/svg" xmlns:xlink="http://www.w3.org/1999/xlink" x="0px" y="0px"
	 width="2048px" height="2048px" viewBox="0 0 2048 2048" enable-background="new 0 0 2048 2048" xml:space="preserve">
<g>
	<path d="M658.9,630.1c0,58.4-37.6,106.1-83.6,106.1c-46,0-83.6-47.7-83.6-106.1V480.8c0-58.4,37.6-106.1,83.6-106.1
		c46,0,83.6,47.8,83.6,106.1V630.1z"/>
	<path d="M1114.2,630.1c0,58.4-37.6,106.1-83.6,106.1c-46,0-83.6-47.7-83.6-106.1V480.8c0-58.4,37.6-106.1,83.6-106.1
		c46,0,83.6,47.8,83.6,106.1V630.1z"/>
	<path d="M1562.9,630.1c0,58.4-37.6,106.1-83.6,106.1c-46,0-83.6-47.7-83.6-106.1V480.8c0-58.4,37.6-106.1,83.6-106.1
		c46,0,83.6,47.8,83.6,106.1V630.1z"/>
	<path d="M1587.7,642.3c-3,66.5-50.4,119.1-108.5,119.1c-57.9,0-105.5-52.6-108.5-119.1h-231.6c-3,66.5-50.4,119.1-108.5,119.1
		c-57.9,0-105.5-52.6-108.5-119.1H683.8c-3,66.5-50.6,119.1-108.5,119.1c-57.9,0-105.5-52.6-108.5-119.1H334.4V1788h1379.3V642.3
		H1587.7z M945.7,878.3h156.6v535H945.7V878.3z M1024,1652.5c-44.3,0-80.3-35.8-80.3-80.1c0-44.3,36-80.3,80.3-80.3
		c44.3,0,80.3,36,80.3,80.3C1104.3,1616.7,1068.3,1652.5,1024,1652.5z"/>
</g>
</svg>
