<?xml version="1.0" encoding="utf-8"?>
<!-- Generator: Adobe Illustrator 16.0.0, SVG Export Plug-In . SVG Version: 6.00 Build 0)  -->
<!DOCTYPE svg PUBLIC "-//W3C//DTD SVG 1.1//EN" "http://www.w3.org/Graphics/SVG/1.1/DTD/svg11.dtd">
<svg version="1.1" id="Capa_1" xmlns="http://www.w3.org/2000/svg" xmlns:xlink="http://www.w3.org/1999/xlink" x="0px" y="0px"
	 width="2048px" height="2048px" viewBox="0 0 2048 2048" enable-background="new 0 0 2048 2048" xml:space="preserve">
<g>
	<path d="M1029.1,265.7c-421.7,0-763.4,341.7-763.4,763.4c0,421.6,341.7,763.4,763.4,763.4c421.6,0,763.4-341.8,763.4-763.4
		C1792.5,607.5,1450.7,265.7,1029.1,265.7z M1029.1,1649.4c-342.5,0-620.2-277.7-620.2-620.3c0-342.5,277.7-620.2,620.2-620.2
		c342.6,0,620.2,277.7,620.2,620.2C1649.4,1371.7,1371.7,1649.4,1029.1,1649.4z"/>
	<path d="M1029.1,1158.4L1029.1,1158.4c-172.8,0-337.3-46.2-477.1-126.8c21.8,266,228.3,474.6,477.1,474.6
		c248.8,0,455.4-208.3,477.1-474.4C1366.4,1112.5,1201.9,1158.4,1029.1,1158.4z"/>
	<path d="M904.4,825.4c0,59.8-48.5,108.3-108.3,108.3c-59.8,0-108.3-48.5-108.3-108.3c0-59.8,48.5-108.3,108.3-108.3
		C855.9,717.1,904.4,765.5,904.4,825.4z"/>
	<path d="M1370.5,825.4c0,59.8-48.5,108.3-108.3,108.3c-59.8,0-108.3-48.5-108.3-108.3c0-59.8,48.5-108.3,108.3-108.3
		C1322,717.1,1370.5,765.5,1370.5,825.4z"/>
</g>
</svg>
