<?xml version="1.0" encoding="utf-8"?>
<!-- Generator: Adobe Illustrator 16.0.0, SVG Export Plug-In . SVG Version: 6.00 Build 0)  -->
<!DOCTYPE svg PUBLIC "-//W3C//DTD SVG 1.1//EN" "http://www.w3.org/Graphics/SVG/1.1/DTD/svg11.dtd">
<svg version="1.1" id="Capa_1" xmlns="http://www.w3.org/2000/svg" xmlns:xlink="http://www.w3.org/1999/xlink" x="0px" y="0px"
	 width="2048px" height="2048px" viewBox="0 0 2048 2048" enable-background="new 0 0 2048 2048" xml:space="preserve">
<g>
	<path d="M920.8,822.7c0,18.9-16.5,34.2-36.9,34.2c-20.4,0-36.9-15.3-36.9-34.2c0-18.9,16.5-34.2,36.9-34.2
		C904.2,788.5,920.8,803.8,920.8,822.7z"/>
	<path d="M1192.7,822.7c0,18.9-16.5,34.2-36.9,34.2c-20.3,0-36.9-15.3-36.9-34.2c0-18.9,16.5-34.2,36.9-34.2
		C1176.2,788.5,1192.7,803.8,1192.7,822.7z"/>
	<g>
		<g>
			<path d="M1074.7,579.6c-7.2-0.5-14.6-0.9-22-1.1c-11.1-0.7-22.4-1.1-33.7-1.3c-10.7,0.2-21.3,0.6-31.9,1.1v-1.5h65.6v1.5
				C1060.1,578.7,1067.5,579.1,1074.7,579.6z"/>
			<path d="M1199.5,593.5c-22.8-3.7-46.5-6.9-70.7-9.4C1153,586.5,1176.7,589.6,1199.5,593.5z"/>
			<path d="M1351.5,710.9v0.2c-0.2-0.2-0.5-0.4-0.7-0.4C1351,710.7,1351.3,710.7,1351.5,710.9z"/>
		</g>
		<g>
			<path stroke="#000000" stroke-width="74.0722" stroke-miterlimit="10" d="M1019.9,413.2"/>
		</g>
		<g>
			<path d="M1117.3,657.2c-0.9,0-2-0.2-2.9-0.2c0.9,0.2,2,0.2,2.9,0.4c14.5,1.5,28.5,3.1,42.4,5
				C1145.8,660.4,1131.7,658.7,1117.3,657.2z M1117.3,657.2c-0.9,0-2-0.2-2.9-0.2c0.9,0.2,2,0.2,2.9,0.4c14.5,1.5,28.5,3.1,42.4,5
				C1145.8,660.4,1131.7,658.7,1117.3,657.2z M1117.3,657.2c-0.9,0-2-0.2-2.9-0.2c0.9,0.2,2,0.2,2.9,0.4c14.5,1.5,28.5,3.1,42.4,5
				C1145.8,660.4,1131.7,658.7,1117.3,657.2z M1117.3,657.2c-0.9,0-2-0.2-2.9-0.2c0.9,0.2,2,0.2,2.9,0.4c14.5,1.5,28.5,3.1,42.4,5
				C1145.8,660.4,1131.7,658.7,1117.3,657.2z M1117.3,657.2c-0.9,0-2-0.2-2.9-0.2c0.9,0.2,2,0.2,2.9,0.4c14.5,1.5,28.5,3.1,42.4,5
				C1145.8,660.4,1131.7,658.7,1117.3,657.2z M1117.3,657.2c-0.9,0-2-0.2-2.9-0.2c0.9,0.2,2,0.2,2.9,0.4c14.5,1.5,28.5,3.1,42.4,5
				C1145.8,660.4,1131.7,658.7,1117.3,657.2z M1117.3,657.2c-0.9,0-2-0.2-2.9-0.2c0.9,0.2,2,0.2,2.9,0.4c14.5,1.5,28.5,3.1,42.4,5
				C1145.8,660.4,1131.7,658.7,1117.3,657.2z M1117.3,657.4"/>
			<path d="M1418.2,673.9l-4.8-15.9l-15-7c-17.2-8.2-35.9-15.8-56.1-22.6c-6.5-2.2-13-4.4-19.6-6.3c-8-2.6-15.9-4.8-24.1-7
				c-6.8-2-13.7-3.9-20.8-5.6c-7.6-1.9-15.4-3.7-23.1-5.4c-7.7-1.8-15.7-3.3-23.9-5c-7.6-1.5-15.2-2.8-23-4.1
				c-2.8-0.6-5.6-0.9-8.3-1.5c-22.8-3.7-46.5-6.9-70.7-9.4c-8.9-0.9-17.8-1.7-26.9-2.4c-8.9-0.7-18.1-1.5-27.2-2
				c-7.2-0.5-14.6-0.9-22-1.1c-11.1-0.7-22.4-1.1-33.7-1.3c-10.7,0.2-21.3,0.6-31.9,1.1c-26.3,1.3-52.4,3.1-77.6,5.7
				c-8.7,1.1-17,2-25.6,3.1c-8.5,0.9-17.2,2.2-25.5,3.5c-10.8,1.5-21.3,3.1-31.7,5c-5.4,0.9-10.7,2-15.9,3
				c-9.2,1.9-18.5,3.7-27.6,5.8c-7.2,1.7-14.3,3.3-21.3,5c-7,1.7-13.9,3.5-20.7,5.6c-37.2,10.2-70.7,22.2-99.8,35.9l-15,7l-4.6,15.9
				c-11.5,38.5-17.2,78.2-17.2,117.8c0,229.1,186.3,415.4,415.3,415.4s415.4-186.3,415.4-415.4
				C1435.2,752,1429.5,712.4,1418.2,673.9z M1019.9,1132.9c-188.1,0-341.3-153.1-341.3-341.3c0-7.6,0.2-15.2,0.7-22.6
				c48.5,14.4,123.7,16.5,205.7,3c113.1-18.7,204.2-61.3,227.4-103c18.5,22.4,58.3,48,107.8,66.9c58.3,22.4,113,28.7,138.9,18.5
				c1.3,12.4,2,24.8,2,37.2C1361.2,979.8,1208.2,1132.9,1019.9,1132.9z"/>
		</g>
		<g>
			<path d="M1052.7,576.9v1.7c-11.1-0.7-22.4-1.1-33.7-1.3c-10.7,0.2-21.3,0.6-31.9,1.1v-1.5H1052.7z"/>
		</g>
	</g>
	<g>
		<path d="M1019.9,1067.1c-75,0-135.9-46.9-135.9-104.5h62.6c0,27,32.9,49,73.3,49c40.4,0,73.3-22,73.3-49h62.7
			C1155.8,1020.2,1094.9,1067.1,1019.9,1067.1z"/>
	</g>
	<path d="M1256.6,1258.6v-91.9l-191.8,91.9l-0.7,0.4v97.4H960.5v-94.4l-2.2-1.1l2.2,1.1l-182-93.3v90h-1l-4.4,0.6l-234.3,36.1
		c-75,0-135.7,56.5-135.7,126.1v217.4c0,69.6,61.3,95.6,136.3,95.6l484.5,54.3l472-49.1c74.8,0,138.7-31.1,138.7-100.7v-217.4
		c0-69.6-60.7-126.1-135.7-126.1L1256.6,1258.6 M893.5,1629.7c-20.4,0-36.9-15.4-36.9-34.3c0-18.9,16.5-34.2,36.9-34.2
		c20.3,0,36.9,15.4,36.9,34.2C930.3,1614.3,913.8,1629.7,893.5,1629.7z M895.1,1499.1c-20.2,0-36.9-15.4-36.9-34.3
		c0-18.9,16.6-34.3,36.9-34.3c20.4,0,36.9,15.4,36.9,34.3C932,1483.7,915.5,1499.1,895.1,1499.1z M1144.2,1629.7
		c-20.4,0-36.9-15.4-36.9-34.3c0-18.9,16.5-34.2,36.9-34.2c20.3,0,36.9,15.4,36.9,34.2C1181.1,1614.3,1164.5,1629.7,1144.2,1629.7z
		 M1145.9,1499.1c-20.2,0-36.9-15.4-36.9-34.3c0-18.9,16.6-34.3,36.9-34.3c20.4,0,36.9,15.4,36.9,34.3
		C1182.7,1483.7,1166.2,1499.1,1145.9,1499.1z"/>
	<path d="M1353.7,259.5H686c-23.1,0-42,20.9-42,46.9v273.3c0,7.2,1.5,13.9,4.1,19.8c99.8-41.1,229.8-66.1,371.8-66.1
		c142.2,0,272,25,371.9,66.1c2.6-5.9,4.2-12.6,4.2-19.8V306.3C1395.9,280.4,1377.1,259.5,1353.7,259.5z M1031.2,427.2
		c-20.4,0-36.9-15.2-36.9-34.1s16.5-34.3,36.9-34.3s36.9,15.4,36.9,34.3S1051.5,427.2,1031.2,427.2z"/>
</g>
</svg>
