<?xml version="1.0" encoding="utf-8"?>
<!-- Generator: Adobe Illustrator 16.0.0, SVG Export Plug-In . SVG Version: 6.00 Build 0)  -->
<!DOCTYPE svg PUBLIC "-//W3C//DTD SVG 1.1//EN" "http://www.w3.org/Graphics/SVG/1.1/DTD/svg11.dtd">
<svg version="1.1" id="Capa_1" xmlns="http://www.w3.org/2000/svg" xmlns:xlink="http://www.w3.org/1999/xlink" x="0px" y="0px"
	viewBox="0 0 2048 2048" enable-background="new 0 0 2048 2048" xml:space="preserve" fill="#ffffff">
<g>
	<path d="M789.3,259.9c-43.7,2.8-72.6,26.4-82.4,65.1c-19.2,76-39.4,152.6-47.4,230.2c-15.6,152-8.2,303.5,35.4,451.8
		c9.9,33.9,16.8,69.7,17.1,104.8c0.7,84.9,0.9,169.9,0.9,254.8v374c0,27.4,20.1,49.8,44.8,49.8h20c8.1,1,16.9,0.9,26.4,0h34.1
		c24.7,0,44.7-22.3,44.7-49.8V456c0-38.8,1.3-77.6-0.6-116.3C879.4,280.8,848.4,256.1,789.3,259.9z"/>
	<path d="M589.6,283.6c-2.2-6.2-5.9-11.8-10.6-16.3c-6.3-4.9-15.2-7.5-27.2-7.6c-24.1-0.2-39.9,8.2-45.1,28.2v369.8
		c0,10-4.4,18.1-9.9,18.1c-5.4,0-9.8-8.1-9.8-18.1V298.3c0-13.7-6.5-25.9-16.5-33.8c-6.4-3.3-14.9-5.1-26.2-4.9
		c-42.5,0.5-43.6,28.6-43.2,60.7l0.1,332.4l-0.3,4.9c0,10.1-3.2,18.1-8.6,18.1c-5.4,0-10.7-7.9-10.7-18.1l0.1-4.6V494.2
		c-0.1-39-0.2-78,0-117v-79c0-13.2-6-25.1-15.5-33c-5.8-3.6-13.6-5.6-23.9-5.7c-33.1-0.4-47.9,15.5-47.8,49
		c0.6,131.2-1.2,262.3,1.5,393.4c0.1,0.3,0.2,0.6,0.3,0.9c0,1,0,2.1,0,3.2c0.1,1.2,0.1,2.4,0.2,3.7c1.9,25.3,17.1,56.6,36.1,70.8
		c16.3,12.3,23.2,24,25.9,38.3c-0.1,2-0.3,4.1-0.3,6.1v910.7c0,30.2,20,54.8,44.7,54.8h80.5c24.7,0,44.8-24.6,44.8-54.8v-16.3
		c0.8-6.2,1.3-12.9,1.6-20c0.4-12.6,0.1-25.2,0.1-37.9c0-275,0.2-550-0.3-825c-0.1-25.4,5.5-41.8,29-58.2
		c17.2-11.9,31-41.1,31.4-62.9c0.1-1.7,0.1-3.4,0.1-5c0-2.6,0.1-5.2,0.2-7.8v-0.1c0.2-0.5,0.3-1,0.4-1.6
		c1.9-131.8,0.4-263.8,1.4-395.6C592.3,296.9,591.5,289.7,589.6,283.6z"/>
	<path d="M1662.9,309c-16.9-6.5-34.1-12.4-51.7-17c-23.4-6.1-46.9-11.3-70.5-15.8c-63.1-11.7-126.8-17.2-190.5-16.6
		c-63.7-0.5-127.3,4.9-190.5,16.6c-23.6,4.4-47.1,9.6-70.5,15.8c-17.5,4.6-34.8,10.5-51.7,17c-80.5,31.4-91.9,51.7-87.6,138.7
		c3.3,67.3,11.5,133.5,26,198.3c12.2,54.3,28.8,107.5,51,159.5c50.4,118,124.2,211.1,256.4,240.9c3,0.6,6.4,3.5,9.3,7.2
		c5.3,6.7,9.5,16.4,9.6,23.1c1.3,150.1,1.3,300.1,0.6,450.3c-0.1,36-17.8,52.4-56,58.5c-64.1,10.3-128.5,25.3-189.2,48.1
		c-25.6,9.6-58.5,40.7-60.1,67.4c-0.4,7.4,0.9,14.4,3.3,21.1c4.4,11.7,17.2,20.7,27.5,29c51.7,22.3,171.7,39.4,317.1,39.4h9.5
		c145.4,0,265.4-17.1,317.1-39.4c10.3-8.3,23.2-17.3,27.5-29c2.4-6.6,3.7-13.6,3.3-21.1c-1.6-26.7-34.5-57.8-60.2-67.4
		c-60.7-22.8-125.1-37.8-189.3-48.1c-38.2-6.1-55.9-22.5-56-58.5c-0.7-150.1-0.7-300.2,0.6-450.3c0.1-6.7,4.3-16.5,9.6-23.1
		c2.9-3.7,6.3-6.6,9.3-7.2c132.2-29.8,206-122.9,256.4-240.9c22.2-52,38.8-105.2,51-159.5c14.5-64.8,22.7-131,26-198.3
		C1754.8,360.7,1743.4,340.4,1662.9,309z"/>
</g>
</svg>
