<?xml version="1.0" encoding="utf-8"?>
<!-- Generator: Adobe Illustrator 18.1.1, SVG Export Plug-In . SVG Version: 6.00 Build 0)  -->
<svg version="1.1" id="Capa_1" xmlns="http://www.w3.org/2000/svg" xmlns:xlink="http://www.w3.org/1999/xlink" x="0px" y="0px"
	 width="2048px" height="2048px" viewBox="718 -628 2048 2048" enable-background="new 718 -628 2048 2048" xml:space="preserve">
<path d="M1742,293.3c-56.7,0-102.7,46-102.7,102.7c0,56.7,46,102.7,102.7,102.7c56.7,0,102.7-46,102.7-102.7
	C1844.7,339.3,1798.7,293.3,1742,293.3z M1742,293.3c-56.7,0-102.7,46-102.7,102.7c0,56.7,46,102.7,102.7,102.7
	c56.7,0,102.7-46,102.7-102.7C1844.7,339.3,1798.7,293.3,1742,293.3z M1742,293.3c-56.7,0-102.7,46-102.7,102.7
	c0,56.7,46,102.7,102.7,102.7c56.7,0,102.7-46,102.7-102.7C1844.7,339.3,1798.7,293.3,1742,293.3z M1742,293.3
	c-56.7,0-102.7,46-102.7,102.7c0,56.7,46,102.7,102.7,102.7c56.7,0,102.7-46,102.7-102.7C1844.7,339.3,1798.7,293.3,1742,293.3z
	 M1742,293.3c-56.7,0-102.7,46-102.7,102.7c0,56.7,46,102.7,102.7,102.7c56.7,0,102.7-46,102.7-102.7
	C1844.7,339.3,1798.7,293.3,1742,293.3z M2317.1-109.4C2317.1-109.4,2317.1-109.4,2317.1-109.4c-27.4-31.1-57.3-60.1-89.4-86.4
	c-137.2-111.7-308.8-173.9-485.8-173.9c-422.8,0-765.6,342.8-765.6,765.6c0,218.7,95.8,430.6,260.3,575.2
	c134.8,118.6,311.7,190.5,505.4,190.5c422.8,0,765.6-342.8,765.6-765.6C2507.6,202.3,2435.7,25.4,2317.1-109.4
	C2317.1-109.4,2435.7,25.4,2317.1-109.4C2317.1-109.4,2435.7,25.4,2317.1-109.4z M1742,1061.8c-367.7,0-665.8-298.1-665.8-665.8
	c0-367.7,298.1-665.8,665.8-665.8c183.2,0,350,74.8,470.4,194.4l-30.6,30.6l-164.9,166C1947.6,51.4,1850,10,1740.3,10
	c-213.1,0-386,172.8-386,386c0,213.2,172.9,386.1,386,386.1c186.9,0,338.8-120.9,374.4-297.4h-115.8
	c-36.8,107-138.4,183.9-257.9,183.9c-150.6,0-272.7-122-272.7-272.6c0-150.6,122.1-272.7,272.7-272.7c119.7,0,221.4,77.3,258,184.5
	h26.5l376.5-0.3c3.9,28.9,5.8,58.5,5.8,88.4C2407.8,763.7,2109.7,1061.8,1742,1061.8z M1742,293.3c-56.7,0-102.7,46-102.7,102.7
	c0,56.7,46,102.7,102.7,102.7c56.7,0,102.7-46,102.7-102.7C1844.7,339.3,1798.7,293.3,1742,293.3z M1742,293.3
	c-56.7,0-102.7,46-102.7,102.7c0,56.7,46,102.7,102.7,102.7c56.7,0,102.7-46,102.7-102.7C1844.7,339.3,1798.7,293.3,1742,293.3z
	 M1742,293.3c-56.7,0-102.7,46-102.7,102.7c0,56.7,46,102.7,102.7,102.7c56.7,0,102.7-46,102.7-102.7
	C1844.7,339.3,1798.7,293.3,1742,293.3z M1742,293.3c-56.7,0-102.7,46-102.7,102.7c0,56.7,46,102.7,102.7,102.7
	c56.7,0,102.7-46,102.7-102.7C1844.7,339.3,1798.7,293.3,1742,293.3z"/>
</svg>
