<?xml version="1.0" encoding="utf-8"?>
<!-- Generator: Adobe Illustrator 16.0.0, SVG Export Plug-In . SVG Version: 6.00 Build 0)  -->
<!DOCTYPE svg PUBLIC "-//W3C//DTD SVG 1.1//EN" "http://www.w3.org/Graphics/SVG/1.1/DTD/svg11.dtd">
<svg version="1.1" id="Capa_1" xmlns="http://www.w3.org/2000/svg" xmlns:xlink="http://www.w3.org/1999/xlink" x="0px" y="0px"
	 width="2048px" height="2048px" viewBox="0 0 2048 2048" enable-background="new 0 0 2048 2048" xml:space="preserve">
<g>
	<g>
		<path d="M384.5,784.3L787.8,623v967.9l-403.3,161.3V784.3z"/>
		<path d="M1271.8,824.5V1752l-403.3-201.6V808.1c59.1,106.2,123.1,183.6,128,189.7l33,39.6l32.7-39.6
			c5.4-6.4,79.2-95.7,141.3-214.1L1271.8,824.5z"/>
		<path d="M1352.4,824.6l322.6-242v967.9l-322.6,242V824.6z"/>
	</g>
	<path d="M1029.5,275.5c-120.1,0-217.3,97.2-217.3,217.2c0,72.1,24,149.2,56.3,219.9c64.2,141.7,161,257.7,161,257.7
		s75.3-90.3,137.2-208.9c43.3-82.8,79.9-179.4,79.9-268.7C1246.5,372.7,1149.4,275.5,1029.5,275.5z M1029,357.5
		c73,0,132.5,59.3,132.5,132.3c0,24.8-7.1,48.2-19.2,67.9c-1.3,2.8-3,5.3-4.9,7.9c-4.3,6.4-9.2,12.4-14.8,17.8
		c-23.3,24.6-56.3,39.6-93.1,39.6c-27.2,0-52.3-8.1-73-22.3c-6.8-4.7-13.2-9.9-19.2-15.8c-25.1-24-40.5-57.8-40.5-95
		C896.8,416.8,956.1,357.5,1029,357.5z"/>
</g>
</svg>
