<?xml version="1.0" encoding="utf-8"?>
<!-- Generator: Adobe Illustrator 16.0.0, SVG Export Plug-In . SVG Version: 6.00 Build 0)  -->
<!DOCTYPE svg PUBLIC "-//W3C//DTD SVG 1.1//EN" "http://www.w3.org/Graphics/SVG/1.1/DTD/svg11.dtd">
<svg version="1.1" id="Capa_1" xmlns="http://www.w3.org/2000/svg" xmlns:xlink="http://www.w3.org/1999/xlink" x="0px" y="0px"
	 width="2048px" height="2048px" viewBox="0 0 2048 2048" enable-background="new 0 0 2048 2048" xml:space="preserve">
<g>
	<path fill-rule="evenodd" clip-rule="evenodd" d="M1189.2,1571.4c-0.1-107,69.3-208.8,173.2-252c112.6-46.8,242.7,15.7,271.3,130.3
		c30.6,122.5-22.5,241-136.9,305.7c-119.6,67.5-268.9,6.7-297.8-121.7C1194.3,1613.2,1192.4,1592.2,1189.2,1571.4z"/>
	<path fill-rule="evenodd" clip-rule="evenodd" d="M566.1,1262c-1.4-3-2-3.7-2-4.3c6.9-42.9,6.8-42.4-40.7-53.3
		c-36.6-8.5-75.3-12.7-104.4-39.5c-44.5-40.9-45.8-88.6-26.4-140c18.2-48.3,56.1-73.5,108.7-79c14.3-1.5,29.6,2.7,44.1,5.7
		c36.4,7.5,72.8,15.4,108.9,23.9c52.1,12.3,102,29.1,151.2,50.8c136.6,60.4,279.1,67.1,416.8,8.8c96.5-40.8,196.2-65.9,298.1-86.8
		c45.8-9.4,96.6,14.1,120.1,52.5c37.2,60.8,31,129.4-18.4,167.3c-16.7,12.8-39.1,19.7-59.9,26.8c-21,7.1-43.1,11.8-65,15.8
		c-19.2,3.5-25.1,11.9-18.2,29c2,5.1,2.6,10.8,3,12.5c-40,6.1-80.8,7.4-117.7,19.3c-36.7,11.8-69.7,34.1-106.9,53.1
		c-41.8-87.6-117.1-132.8-223.5-133.5c-105.7-0.7-183,39.4-224.8,135.6C737.6,1271.2,658.4,1244.9,566.1,1262z"/>
	<path fill-rule="evenodd" clip-rule="evenodd" d="M880.6,1588.8c1.6,30.7-11.3,74.2-39.3,113.2c-60.9,84.8-171.7,104.1-266.3,55.3
		c-93.8-48.4-143.1-126.5-150.6-225.3c-5.8-77.4,18.9-146.6,89.1-194.3c73.9-50.2,175.2-44.1,254,15.1
		C842,1408.7,880.2,1482,880.6,1588.8z"/>
	<path fill-rule="evenodd" clip-rule="evenodd" d="M930.5,1602.4c70.2,24.7,140.3,25.8,211.6,2.1c8.9,31.7,17.5,62.3,26.9,95.6
		c-88.9,24.3-177.6,24.6-267.7,3.7C911.2,1669.4,920.4,1637.3,930.5,1602.4z"/>
	<path fill-rule="evenodd" clip-rule="evenodd" d="M1026.9,778c-32.7-0.2-54.8-16.5-54.8-40.5c0.1-23.1,24-41.3,54.8-41.5
		c28.1-0.2,55.1,20.9,54.7,42.8C1081.2,760.3,1056.3,778.1,1026.9,778z"/>
	<path d="M1559.6,379.3c-19-68.1-69.5-109.9-143.4-120.6c-71.2-10.2-130,15.5-170.2,71.8c-12,17-21.2,14.9-38,9.6
		c-39.5-12.4-79.1-25.8-119.9-32.2c-88.6-13.8-174.4-1.3-256.1,33.9c-12.2,5.4-18,2.7-25.1-7.7c-45.2-65.3-123.1-91.7-203.7-70.1
		c-68.3,18.4-117.3,78.1-123.5,150.4c-5.2,62.8,39.5,129.4,105.1,155.8c13.4,5.4,22.6,9,19.3,26.8c-11.9,63-13.8,125.6,23.3,183
		c23.7,36.4,45.5,74.3,73.7,107.4c31.6,37.3,73.9,64.3,126.4,86.1c-6-8.4-8.6-12-11.3-15.9c-41.2-58-55.1-120-25.3-185.6
		c62.8-137.8,253.8-182.8,387.1-91.9c106,72.4,123.1,198.3,35.2,296.5c14.8-6.7,24.5-10.5,33.3-15.5c14.8-8.2,29.7-16.7,43.1-26.6
		c114.1-83.8,171.7-190.5,149.1-328.8c-2.8-17.4-0.4-27,19.3-34.9C1540.1,538.3,1582.5,461.6,1559.6,379.3z M640.6,498.1
		c-25.1-19-45.4-40.8-34.1-74.6c9.8-30.2,31.4-50.2,64.5-57.4c28.5-6.3,53,0.4,71.7,19.5C708.5,423.5,675.2,460,640.6,498.1z
		 M873.7,640.2c-27.4,0-49.6-22.2-49.6-49.6c0-27.4,22.2-49.6,49.6-49.6s49.6,22.2,49.6,49.6C923.3,618,901.1,640.2,873.7,640.2z
		 M1177.7,640.2c-27.4,0-49.6-22.2-49.6-49.6c0-27.4,22.2-49.6,49.6-49.6s49.6,22.2,49.6,49.6C1227.3,618,1205.1,640.2,1177.7,640.2
		z M1403.8,496.6c-31.8-35.2-63.2-70-96.1-106.6c17.4-19.3,41.7-25.7,68.8-21.1c32.5,5.6,55.5,28.7,60.5,58
		C1441.3,453.9,1429.4,486.3,1403.8,496.6z"/>
</g>
</svg>
