<?xml version="1.0" encoding="utf-8"?>
<!-- Generator: Adobe Illustrator 16.0.0, SVG Export Plug-In . SVG Version: 6.00 Build 0)  -->
<!DOCTYPE svg PUBLIC "-//W3C//DTD SVG 1.1//EN" "http://www.w3.org/Graphics/SVG/1.1/DTD/svg11.dtd">
<svg version="1.1" id="Capa_1" xmlns="http://www.w3.org/2000/svg" xmlns:xlink="http://www.w3.org/1999/xlink" x="0px" y="0px"
	 width="2048px" height="2048px" viewBox="0 0 2048 2048" enable-background="new 0 0 2048 2048" xml:space="preserve">
<g>
	<g>
		<path d="M1725.7,1407.2H322.4c-17.3,0-32.3,6.3-44.9,18.9c-12.7,12.6-19,27.6-19,44.9v127.6c0,17.2,6.3,32.2,19,44.8
			c12.6,12.6,27.5,18.9,44.9,18.9h1403.3c17.3,0,32.2-6.3,44.8-18.9c12.6-12.6,18.9-27.6,18.9-44.8V1471c0-17.3-6.3-32.2-18.9-44.9
			C1758,1413.5,1743,1407.2,1725.7,1407.2z"/>
		<path d="M1770.5,405.5c-12.6-12.6-27.5-18.9-44.8-18.9H322.4c-17.3,0-32.3,6.3-44.9,18.9c-12.7,12.6-19,27.6-19,44.9v127.6
			c0,17.3,6.3,32.2,19,44.9c12.6,12.6,27.5,18.9,44.9,18.9h1403.3c17.3,0,32.2-6.3,44.8-18.9c12.6-12.6,18.9-27.6,18.9-44.9V450.3
			C1789.5,433.1,1783.2,418.1,1770.5,405.5z"/>
		<path d="M1725.7,896.9H322.4c-17.3,0-32.3,6.3-44.9,19c-12.7,12.6-19,27.6-19,44.8v127.6c0,17.3,6.3,32.3,19,44.9
			c12.6,12.6,27.5,19,44.9,19h1403.3c17.3,0,32.2-6.3,44.8-19c12.6-12.6,18.9-27.6,18.9-44.9V960.6c0-17.3-6.3-32.2-18.9-44.8
			C1758,903.2,1743,896.9,1725.7,896.9z"/>
	</g>
</g>
</svg>
