<?xml version="1.0" encoding="utf-8"?>
<!-- Generator: Adobe Illustrator 16.0.0, SVG Export Plug-In . SVG Version: 6.00 Build 0)  -->
<!DOCTYPE svg PUBLIC "-//W3C//DTD SVG 1.1//EN" "http://www.w3.org/Graphics/SVG/1.1/DTD/svg11.dtd">
<svg version="1.1" id="Capa_1" xmlns="http://www.w3.org/2000/svg" xmlns:xlink="http://www.w3.org/1999/xlink" x="0px" y="0px"
	 width="2048px" height="2048px" viewBox="0 0 2048 2048" enable-background="new 0 0 2048 2048" xml:space="preserve">
<g>
	<path d="M1457.7,988.5L738.5,269.3c-10.3-10.3-22.1-15.4-35.5-15.4c-13.4,0-25.2,5.2-35.5,15.4l-77.1,77.2
		c-10.3,10.3-15.5,22.1-15.5,35.5c0,13.4,5.1,25.2,15.5,35.5l606.6,606.6l-606.6,606.6c-10.3,10.3-15.5,22.1-15.5,35.5
		c0,13.4,5.1,25.2,15.5,35.5l77.1,77.1c10.3,10.3,22.1,15.4,35.5,15.4c13.4,0,25.2-5.1,35.5-15.4l719.2-719.2
		c10.3-10.3,15.4-22.1,15.4-35.5C1473.1,1010.6,1468,998.8,1457.7,988.5z"/>
</g>
</svg>
