<?xml version="1.0" encoding="utf-8"?>
<!-- Generator: Adobe Illustrator 16.0.0, SVG Export Plug-In . SVG Version: 6.00 Build 0)  -->
<!DOCTYPE svg PUBLIC "-//W3C//DTD SVG 1.1//EN" "http://www.w3.org/Graphics/SVG/1.1/DTD/svg11.dtd">
<svg version="1.1" id="Capa_1" xmlns="http://www.w3.org/2000/svg" xmlns:xlink="http://www.w3.org/1999/xlink" x="0px" y="0px"
	 width="2048px" height="2048px" viewBox="0 0 2048 2048" enable-background="new 0 0 2048 2048" xml:space="preserve">
<g>
	<g>
		<path d="M299.6,817.2c22.7,16,90.8,63.4,204.6,142.2c113.8,78.8,201,139.5,261.5,182.1c6.6,4.7,20.8,14.8,42.4,30.4
			c21.6,15.7,39.6,28.3,53.9,38c14.3,9.6,31.6,20.4,51.9,32.4c20.3,12,39.4,20.9,57.4,26.9c18,6,34.6,9,49.9,9h1h1
			c15.3,0,31.9-3,49.9-9c18-6,37.1-15,57.4-26.9c20.3-12,37.6-22.8,51.9-32.4c14.3-9.6,32.2-22.3,53.9-38
			c21.6-15.6,35.8-25.8,42.4-30.4c61.2-42.6,216.9-150.7,467.1-324.4c48.6-33.9,89.1-74.8,121.7-122.8
			c32.6-47.9,48.9-98.1,48.9-150.7c0-43.9-15.8-81.5-47.4-112.8c-31.6-31.3-69-46.9-112.2-46.9H287.7c-51.2,0-90.6,17.3-118.3,51.9
			c-27.6,34.6-41.4,77.9-41.4,129.8c0,41.9,18.3,87.3,54.9,136.2C219.5,750.8,258.4,789.2,299.6,817.2z"/>
		<path d="M1816.7,923.9c-218.2,147.7-383.9,262.5-497,344.3c-37.9,27.9-68.7,49.8-92.3,65.4c-23.6,15.6-55.1,31.6-94.3,47.9
			c-39.2,16.3-75.8,24.4-109.8,24.4h-1h-1c-33.9,0-70.5-8.1-109.8-24.4c-39.3-16.3-70.7-32.3-94.3-47.9
			c-23.6-15.6-54.4-37.4-92.3-65.4c-89.9-65.9-255.2-180.7-496-344.3c-37.9-25.3-71.5-54.2-100.8-86.8v792.4
			c0,43.9,15.6,81.5,46.9,112.8c31.3,31.3,68.9,46.9,112.8,46.9h1469.2c43.9,0,81.5-15.6,112.7-46.9c31.3-31.3,46.9-68.8,46.9-112.8
			V837.1C1887.9,869,1854.6,898,1816.7,923.9z"/>
	</g>
</g>
</svg>
