<?xml version="1.0" encoding="utf-8"?>
<!-- Generator: Adobe Illustrator 16.0.0, SVG Export Plug-In . SVG Version: 6.00 Build 0)  -->
<!DOCTYPE svg PUBLIC "-//W3C//DTD SVG 1.1//EN" "http://www.w3.org/Graphics/SVG/1.1/DTD/svg11.dtd">
<svg version="1.1" id="Capa_1" xmlns="http://www.w3.org/2000/svg" xmlns:xlink="http://www.w3.org/1999/xlink" x="0px" y="0px"
	 width="2048px" height="2048px" viewBox="0 0 2048 2048" enable-background="new 0 0 2048 2048" xml:space="preserve">
<path d="M1770.5,916.4c-12.6-12.6-27.5-19-44.8-19h-574.1V323.3c0-17.3-6.3-32.2-18.9-44.8c-12.6-12.6-27.6-18.9-44.9-18.9H960.2
	c-17.3,0-32.2,6.3-44.9,18.9c-12.6,12.6-18.9,27.5-18.9,44.8v574.1H322.4c-17.3,0-32.3,6.3-44.9,19c-12.7,12.6-19,27.6-19,44.8
	v127.6c0,17.3,6.3,32.3,19,44.9c12.6,12.6,27.5,19,44.9,19h574.1v574c0,17.3,6.3,32.3,18.9,44.9c12.6,12.7,27.6,19,44.9,19h127.6
	c17.3,0,32.2-6.3,44.9-19c12.6-12.6,18.9-27.5,18.9-44.9v-574h574.1c17.3,0,32.2-6.3,44.8-19c12.6-12.6,18.9-27.6,18.9-44.9V961.2
	C1789.5,943.9,1783.2,929,1770.5,916.4z"/>
</svg>
