<?xml version="1.0" encoding="utf-8"?>
<!-- Generator: Adobe Illustrator 16.0.0, SVG Export Plug-In . SVG Version: 6.00 Build 0)  -->
<!DOCTYPE svg PUBLIC "-//W3C//DTD SVG 1.1//EN" "http://www.w3.org/Graphics/SVG/1.1/DTD/svg11.dtd">
<svg version="1.1" id="Capa_1" xmlns="http://www.w3.org/2000/svg" xmlns:xlink="http://www.w3.org/1999/xlink" x="0px" y="0px"
	 width="2048px" height="2048px" viewBox="0 0 2048 2048" enable-background="new 0 0 2048 2048" xml:space="preserve">
<g>
	<g>
		<path d="M1583.2,1201.7c0-33.1-10.8-62-32.5-86.8l-627-680.8c-22.2-24.2-52.1-44.7-89.5-61.5c-37.4-16.8-71.6-25.3-102.6-25.3
			H366.8c-30.4,0-56.7,12.1-79,36.3c-22.2,24.1-33.3,52.7-33.3,85.8v396.7c0,33.7,7.8,70.9,23.3,111.6
			c15.5,40.7,34.4,72.8,56.5,96.3l627.1,682.8c21.7,23.5,48,35.3,79,35.3c30.4,0,57-11.8,79.8-35.3l430.6-469.2
			C1572.4,1264,1583.2,1235.5,1583.2,1201.7z M614.5,738.8c-21.9,23.8-48.4,35.8-79.4,35.8c-31,0-57.4-11.9-79.4-35.8
			c-21.9-23.8-32.9-52.6-32.9-86.3c0-33.7,10.9-62.4,32.9-86.3c21.9-23.8,48.4-35.8,79.4-35.8c31,0,57.4,11.9,79.4,35.8
			c21.9,23.8,32.9,52.6,32.9,86.3C647.4,686.2,636.4,715,614.5,738.8z"/>
		<path d="M1887.5,1115l-627.1-680.9c-22.2-24.2-52-44.7-89.5-61.5c-37.4-16.8-71.6-25.3-102.6-25.3H871.9c31,0,65.2,8.4,102.6,25.3
			c37.4,16.9,67.2,37.3,89.5,61.5l627.1,680.9c21.7,24.8,32.5,53.7,32.5,86.8c0,33.7-10.8,62.3-32.5,85.8l-412.2,448.2
			c17.6,19.7,33.1,34,46.5,42.9c13.4,8.9,30.7,13.4,51.7,13.4c30.4,0,57-11.8,79.8-35.3l430.7-469.2c21.6-23.5,32.5-52.1,32.5-85.8
			C1920,1168.7,1909.2,1139.8,1887.5,1115z"/>
	</g>
</g>
</svg>
