<?xml version="1.0" encoding="utf-8"?>
<!-- Generator: Adobe Illustrator 16.0.0, SVG Export Plug-In . SVG Version: 6.00 Build 0)  -->
<!DOCTYPE svg PUBLIC "-//W3C//DTD SVG 1.1//EN" "http://www.w3.org/Graphics/SVG/1.1/DTD/svg11.dtd">
<svg version="1.1" id="Capa_1" xmlns="http://www.w3.org/2000/svg" xmlns:xlink="http://www.w3.org/1999/xlink" x="0px" y="0px"
	 viewBox="0 0 2048 2048" enable-background="new 0 0 2048 2048" xml:space="preserve" fill="#ffffff">
<g>
	<path d="M1920,747c0-26.5-20.1-43-60.2-49.4l-539.6-78.5l-241.9-489.1c-13.6-29.4-31.2-44.1-52.7-44.1c-21.5,0-39.1,14.7-52.7,44.1
		L731,619.1l-539.7,78.5c-40.1,6.4-60.2,22.9-60.2,49.4c0,15.1,9,32.3,26.9,51.7l391.3,380.6l-92.4,537.6c-1.4,10-2.1,17.2-2.1,21.5
		c0,15,3.7,27.7,11.3,38.2c7.5,10.4,18.8,15.6,33.9,15.6c12.9,0,27.2-4.3,43-12.9l482.7-253.7l482.8,253.7c15,8.6,29.4,12.9,43,12.9
		c14.4,0,25.3-5.2,32.8-15.6c7.5-10.4,11.3-23.2,11.3-38.2c0-9.3-0.3-16.4-1.1-21.5l-92.4-537.6L1892,798.7
		C1910.7,780,1920,762.8,1920,747z"/>
</g>
</svg>
