<?xml version="1.0" encoding="utf-8"?>
<!-- Generator: Adobe Illustrator 18.1.1, SVG Export Plug-In . SVG Version: 6.00 Build 0)  -->
<svg version="1.1" id="Capa_1" xmlns="http://www.w3.org/2000/svg" xmlns:xlink="http://www.w3.org/1999/xlink" x="0px" y="0px"
	 width="2048px" height="2048px" viewBox="726 -604.1 2048 2048" enable-background="new 726 -604.1 2048 2048"
	 xml:space="preserve">
<g>
	<g>
		<path d="M1892.8,804.4h-288.3c-12.8,0-24.1,4.8-33.6,14.4c-9.6,9.6-14.5,20.8-14.5,33.6v288.3c0,12.8,4.9,24,14.5,33.6
			s20.8,14.4,33.6,14.4h288.3c12.8,0,24.1-4.8,33.6-14.4c9.7-9.6,14.5-20.8,14.5-33.6V852.4c0-12.8-4.8-24-14.5-33.6
			C1916.8,809.2,1905.6,804.4,1892.8,804.4z"/>
		<path d="M2271.2-58.7c-32.9-60.5-75.3-111.5-127.3-153.2c-52-41.6-110.5-74.9-175.4-99.7c-64.8-24.8-129.4-37.3-193.4-37.3
			c-243.4,0-429.2,106.5-557.4,319.5c-6.4,10.4-8.7,21.6-6.6,33.6c2,12,8.2,22,18.6,30l197,150.2c10.4,6.4,20.4,9.6,30,9.6
			c14.4,0,26.8-6.4,37.3-19.2c57.6-72.1,100.5-118.1,128.5-138.2c34.4-23.2,77.7-34.8,129.7-34.8c48.8,0,91.9,12.8,129.2,38.5
			c37.1,25.6,55.8,55.2,55.8,88.9c0,37.6-10,68.1-30.1,91.3c-20,23.2-53.7,45.6-100.9,67.2c-62.5,28-119.7,71.5-171.8,130.4
			c-52,58.8-78.1,121.5-78.1,188v54.1c0,15.2,4.2,30.3,12.6,45.1c8.4,14.9,18.6,22.2,30.6,22.2h288.3c12.7,0,24-6.2,33.6-18.6
			c9.6-12.4,14.5-25.4,14.5-39c0-20,11-46.9,33-80.5s49.4-59.7,82.3-78.1c31.2-17.6,55.7-31.8,73.3-42.7
			c17.6-10.8,40.7-28.2,69.1-52.2c28.4-24.1,50.4-47.9,66-71.5s29.7-54.3,42.1-91.9c12.4-37.6,18.6-78.1,18.6-121.3
			C2320.4,65.2,2304,1.7,2271.2-58.7z"/>
	</g>
</g>
</svg>
