<?xml version="1.0" encoding="utf-8"?>
<!-- Generator: Adobe Illustrator 16.0.0, SVG Export Plug-In . SVG Version: 6.00 Build 0)  -->
<!DOCTYPE svg PUBLIC "-//W3C//DTD SVG 1.1//EN" "http://www.w3.org/Graphics/SVG/1.1/DTD/svg11.dtd">
<svg version="1.1" id="Capa_1" xmlns="http://www.w3.org/2000/svg" xmlns:xlink="http://www.w3.org/1999/xlink" x="0px" y="0px"
	 width="2048px" height="2048px" viewBox="0 0 2048 2048" enable-background="new 0 0 2048 2048" xml:space="preserve">
<g>
	<path d="M1034.1,1666.8c-47.1,0-94.2,0.1-141.2,0C940,1666.9,987.1,1666.8,1034.1,1666.8c47.1,0,94.1,0.1,141.2,0
		C1128.3,1666.9,1081.2,1666.8,1034.1,1666.8z"/>
	<path d="M1182.5,1474.5c-48.5-0.1-97,0-145.4,0c-50.6,0-101.2-0.1-151.7,0.1c-27.3,0.1-42.8,13-43.2,35.1
		c-0.4,23.1,15.2,37,43.3,37.1c99,0.2,198.1,0.2,297.1,0c28.3-0.1,44.3-13.6,44.3-36.3C1226.8,1487.7,1210.9,1474.6,1182.5,1474.5z"
		/>
	<path d="M1181.1,1712.8c-32.8,25.8-66.1,52.2-90.5,70.2c-5.3,3.6-32.5,9.6-55.1,9.5c-22.5,0.1-49.8-5.9-55.1-9.5
		c-24.4-17.9-57.8-44.4-90.5-70.2H1181.1z"/>
	<path d="M889.8,1712.8c14.9,12.9,17.2,14.3,38,33.5C917.8,1734.9,904.7,1725.8,889.8,1712.8z"/>
	<path d="M1275,514.9c-105.4-55.8-219.6-69.2-338.3-48c-111.2,19.8-205.2,67.6-271.1,154.6c-76.1,100.4-89.5,212.3-61.3,329.6
		c18.8,77.8,61.7,146,105.1,213.7c51.5,80.5,106,159.9,109,258.6c35.2,0,68.6,0,107.6,0c-5.1-31.4-8.2-60.5-14.7-88.8
		c-17.2-74.9-57.6-140.4-99.4-205.2c-37.8-58.6-78.3-116.1-98.1-182.6C681.6,838.4,694,737,779.4,651.8
		c68.5-68.4,157.7-95.2,256.7-94.9c99.8,0.4,189.3,28.5,257.2,98.4c82,84.5,94.1,184.2,62.4,290.3c-19.3,64.5-57.9,120.8-94.5,177.7
		c-39.6,61.4-78.7,123.1-98.6,193.1c-10,35-17.2,70.3-14.9,106.6c35.9,0,69.3,0,103.7,0c1.4-75.2,34.1-139.5,72.8-201.9
		c23.1-37.2,47.1-73.9,69.9-111.3c51.4-84.4,87.3-172.7,83.5-271.9C1472.1,696.7,1409.3,586,1275,514.9z"/>
	<path d="M1175.9,1593.2c-94.1-0.2-188.3-0.2-282.5,0c-26.7,0-45.2,15.5-45.2,36.7c0,21.6,18,36.8,44.7,36.9
		c47.1,0.2,94.2,0,141.2,0c47.1,0,94.1,0.1,141.2,0c28.1-0.1,44-13.4,44.2-36.4C1219.8,1607.7,1203.4,1593.2,1175.9,1593.2z"/>
	<path d="M1037.1,1474.5c48.4,0,96.9-0.1,145.4,0C1134,1474.4,1085.5,1474.5,1037.1,1474.5c-50.6,0-101.2-0.1-151.7,0.1
		C935.9,1474.4,986.5,1474.5,1037.1,1474.5z"/>
	<path d="M1181.1,1712.8c-32.7,25.8-88.5,68.7-90.5,70.2C1115.9,1764.5,1148.4,1738.6,1181.1,1712.8z"/>
	<g>
		<path d="M1033.8,391.4c-32.1,0-58.1-26-58.1-58.1V214.4c0-32.1,26-58.1,58.1-58.1c32.1,0,58.1,26,58.1,58.1v118.9
			C1091.9,365.4,1065.9,391.4,1033.8,391.4z"/>
	</g>
	<g>
		<path d="M1439.3,548.5c-15.6,0-31.2-6.3-42.7-18.7c-21.8-23.5-20.3-60.3,3.2-82l91-84.1c23.6-21.8,60.3-20.3,82.1,3.2
			c21.8,23.5,20.3,60.3-3.2,82.1l-91,84.1C1467.5,543.4,1453.4,548.5,1439.3,548.5z"/>
	</g>
	<g>
		<path d="M1734.4,924.7h-128.6c-32.1,0-58.1-26-58.1-58.1c0-32.1,26-58.1,58.1-58.1h128.6c32.1,0,58.1,26,58.1,58.1
			C1792.5,898.7,1766.5,924.7,1734.4,924.7z"/>
	</g>
	<g>
		<path d="M328.4,920.2c-32.1,0-58.1-26-58.1-58c0-32.1,26-58.1,58.1-58.1l128.6,0l0,0c32.1,0,58.1,26,58.1,58.1
			c0,32.1-26,58.1-58.1,58.1L328.4,920.2L328.4,920.2z"/>
	</g>
	<g>
		<path d="M626.9,545.3c-14.1,0-28.2-5.1-39.4-15.4l-90.9-84.1c-23.5-21.8-25-58.5-3.2-82.1c21.8-23.5,58.5-25,82-3.2l90.9,84.1
			c23.5,21.8,25,58.5,3.2,82C658.2,539,642.6,545.3,626.9,545.3z"/>
	</g>
</g>
</svg>
