<?xml version="1.0" encoding="utf-8"?>
<!-- Generator: Adobe Illustrator 16.0.0, SVG Export Plug-In . SVG Version: 6.00 Build 0)  -->
<!DOCTYPE svg PUBLIC "-//W3C//DTD SVG 1.1//EN" "http://www.w3.org/Graphics/SVG/1.1/DTD/svg11.dtd">
<svg version="1.1" id="Capa_1" xmlns="http://www.w3.org/2000/svg" xmlns:xlink="http://www.w3.org/1999/xlink" x="0px" y="0px"
	 viewBox="0 0 2048 2048" enable-background="new 0 0 2048 2048" xml:space="preserve" fill="#ffffff">
<g>
	<path fill-rule="evenodd" clip-rule="evenodd" d="M255.3,1398.5c68.2-11.1,136.4-22.2,208-33.8c23,125.1,45.7,248.8,69.1,375.9
		c-93.9,17.3-185.5,34.2-277.1,51.1C255.3,1660.7,255.3,1529.6,255.3,1398.5z"/>
	<path fill-rule="evenodd" clip-rule="evenodd" d="M798,1421.8c73.3,4.5,146.6,9.3,220,13.1c11.6,0.6,24.2-1.9,35.2-6
		c81-30.7,161.8-61.8,242.5-93.6c42.1-16.6,66.5-15.6,77.6,9c13.1,29,8,42.9-33.6,68.8c-92.5,57.5-183.2,117.9-276.4,174.1
		c-22,13.3-51,20.5-77.1,21c-104,2.1-208.2,2.7-312.3-0.7c-52.2-1.7-96.9,3.6-122.2,58.3c-2.4-1-4.8-2.1-7.1-3.1
		c-15.5-97-31.1-194-47.4-296.3c77.3-18.5,144.6-64.5,227.3-65.3c77.8-0.8,155.5-5.9,233.2-9.2c5.1-0.2,10.1-0.7,15.2-0.7
		c22.1,0.2,36.5,10.3,40.6,32.6c4.2,23-7.2,37.2-28.3,43c-53.4,14.8-107,28.5-160.6,42.7c-9.2,2.4-18.3,5.6-27.5,8.4
		C797.4,1419.5,797.7,1420.6,798,1421.8z"/>
	<path fill-rule="evenodd" clip-rule="evenodd" d="M1695.8,1071.3c-2.3-25.1-3-50.3-5.3-75.4c-19.1-201.6-174.9-386.9-370.9-441.2
		c-19.8-5.5-39.9-10.2-60.3-15.2c12.6-16.3,20.2-36.8,20.2-59c0-53.4-43.4-96.6-96.9-96.6c-53.5,0-96.9,43.3-96.9,96.6
		c0,22.3,7.6,42.8,20.3,59.2C977.2,561,865.2,624.8,780.8,734.2c-84.6,109.6-119.2,233.7-111,373.4c19.1,0,33.1,0,47.2,0
		c14.7,0,29.5,0,43.8,0c24-339.5,202.5-483.4,352.7-523.1C925.8,708,849.1,888.8,838.6,1107.7c50.2,0,98.6,0,147,0
		c224.4,0.2,448.8-0.2,673.2,1.4C1689.2,1109.3,1698.3,1098.9,1695.8,1071.3z"/>
	<rect x="572.1" y="1144" fill-rule="evenodd" clip-rule="evenodd" width="1220.6" height="108.9"/>
</g>
</svg>
