<?xml version="1.0" encoding="utf-8"?>
<!-- Generator: Adobe Illustrator 16.0.0, SVG Export Plug-In . SVG Version: 6.00 Build 0)  -->
<!DOCTYPE svg PUBLIC "-//W3C//DTD SVG 1.1//EN" "http://www.w3.org/Graphics/SVG/1.1/DTD/svg11.dtd">
<svg version="1.1" id="Capa_1" xmlns="http://www.w3.org/2000/svg" xmlns:xlink="http://www.w3.org/1999/xlink" x="0px" y="0px"
	 width="2048px" height="2048px" viewBox="0 0 2048 2048" enable-background="new 0 0 2048 2048" xml:space="preserve">
<g>
	<path d="M1750.4,1243.2l-214-214c-1.5-1.5-3.5-3-5.4-4.6c-8.9-6.3-21.6-10.8-31.4-10.8h-172.7c-11.9,0-21.6,9.7-21.6,21.6v172.7
		c0,11.9,6.9,28.3,15.4,36.8l214,214c8.4,8.5,22.1,8.5,30.5,0l185.3-185.2C1758.8,1265.3,1758.8,1251.6,1750.4,1243.2z
		 M1435.3,1201.6c-32.3,0-58.4-26.2-58.4-58.4c0-32.3,26.2-58.4,58.4-58.4c32.2,0,58.4,26.2,58.4,58.4
		C1493.7,1175.5,1467.5,1201.6,1435.3,1201.6z"/>
	<path d="M1326.9,970.5h172.7c9.9,0,21,2.2,31.4,6V600h-224.2v-61.2c0-153.7-127.9-278.8-285-278.8
		c-157.1,0-284.8,125.1-284.8,278.8V600H512.5v1192.5H1531v-286.8c-10.2-3-19.3-8.5-26.8-16l-214-214.3
		c-16.4-16.4-28.1-44.1-28.1-67.3v-172.7C1262,999.7,1291.2,970.5,1326.9,970.5z M910.1,600v-61.2c0-59.3,50-107.8,111.7-107.8
		c61.7,0,111.9,48.5,111.9,107.8V600H910.1z M1220.2,956.2c-35.3,0-63.9-28.6-63.9-63.8c0-18.4,8-35.1,20.6-46.8V538.8
		c0-83.4-69.5-151.1-155.2-151.1c-85.5,0-155,67.7-155,151.1v306.9c12.6,11.7,20.5,28.3,20.5,46.8c0,35.3-28.6,63.8-63.8,63.8
		c-35.3,0-63.8-28.6-63.8-63.8c0-18.4,8-35.1,20.6-46.8V538.8c0-130.1,108.2-235.5,241.5-235.5c133.5,0,241.7,105.4,241.7,235.5
		v306.9c12.6,11.7,20.5,28.3,20.5,46.8C1284,927.7,1255.5,956.2,1220.2,956.2z"/>
</g>
</svg>
