<?xml version="1.0" encoding="utf-8"?>
<!-- Generator: Adobe Illustrator 16.0.0, SVG Export Plug-In . SVG Version: 6.00 Build 0)  -->
<!DOCTYPE svg PUBLIC "-//W3C//DTD SVG 1.1//EN" "http://www.w3.org/Graphics/SVG/1.1/DTD/svg11.dtd">
<svg version="1.1" id="Capa_1" xmlns="http://www.w3.org/2000/svg" xmlns:xlink="http://www.w3.org/1999/xlink" x="0px" y="0px"
	 width="2048px" height="2048px" viewBox="0 0 2048 2048" enable-background="new 0 0 2048 2048" xml:space="preserve">
<g>
	<g>
		<path d="M1757.3,767.1l-114.8-113.8c-34,34-75.3,51-123.8,51c-48.6,0-89.9-17-123.8-51c-34-34-51-75.3-51-123.9
			c0-48.6,17-89.9,51-123.8L1281,291.7c-22.5-22.4-49.9-33.7-82.4-33.7c-32.4,0-59.9,11.3-82.4,33.7l-826,825.1
			c-22.5,22.5-33.7,50-33.7,82.4c0,32.5,11.2,60,33.7,82.4L404,1396.4c34-34,75.3-51,123.9-51s89.9,17,123.8,51
			c34,34,51,75.3,51,123.9c0,48.6-17,89.8-51,123.8l114.7,114.7c22.5,22.5,50,33.7,82.4,33.7c32.5,0,60-11.2,82.4-33.7l826-826.9
			c22.5-22.5,33.7-49.9,33.7-82.4C1791,817,1779.8,789.5,1757.3,767.1z M1510.5,949.2L947.7,1512c-10.9,11-24.6,16.4-41,16.4
			c-16.4,0-30.1-5.5-41-16.4l-329.7-329.6c-11.5-11.5-17.3-25.2-17.3-41c0-15.8,5.8-29.5,17.3-41l562.8-562.8
			c10.9-10.9,24.6-16.4,41-16.4c16.4,0,30,5.5,41,16.4l329.7,329.7c11.5,11.5,17.3,25.2,17.3,41C1527.8,924,1522,937.7,1510.5,949.2
			z"/>
		<path d="M1139.9,620.5l287.8,287.8l-520.9,520.9L619,1141.4L1139.9,620.5z"/>
	</g>
</g>
</svg>
