<?xml version="1.0" encoding="utf-8"?>
<!-- Generator: Adobe Illustrator 16.0.0, SVG Export Plug-In . SVG Version: 6.00 Build 0)  -->
<!DOCTYPE svg PUBLIC "-//W3C//DTD SVG 1.1//EN" "http://www.w3.org/Graphics/SVG/1.1/DTD/svg11.dtd">
<svg version="1.1" id="Capa_1" xmlns="http://www.w3.org/2000/svg" xmlns:xlink="http://www.w3.org/1999/xlink" x="0px" y="0px"
	 width="2048px" height="2048px" viewBox="0 0 2048 2048" enable-background="new 0 0 2048 2048" xml:space="preserve">
<g>
	<path fill-rule="evenodd" clip-rule="evenodd" d="M342,783.8c-37.6-5.3-72.7-10.3-107.9-15.1c-20.8-2.9-34.1-13.6-38.6-31.6
		c-4.6-18.2,2.6-35.7,20.2-47.3c96.6-63.5,198.1-118,305.3-161.5c5.7-2.3,11.5-4.3,17.3-6.1c24.7-7.4,43.8-0.8,54.2,22.7
		c16.6,37.6,33.5,75.5,45.6,114.7c22.5,73.3,41.7,147.6,61.9,221.5c2.3,8.4,3.9,17.8,2.9,26.3c-4,34.4-39.7,48.5-69.5,27.5
		c-15.5-10.9-30-23.1-45.1-34.6c-15.4-11.8-30.9-23.4-48.8-36.9c-28.8,72.4-37.5,145.9-31.7,220.5
		c10.1,130.2,60.7,243.8,152.9,336.5c199.5,200.4,508.1,216.5,724.1,38.3c216.8-178.8,253.4-479.6,112.6-703
		C1350.8,523.2,1017,415.5,738.5,600.9c-2.7-6.8-5.7-13.1-7.8-19.7c-18.2-56.1-35.9-112.3-54.5-168.3c-4.1-12.4-1.7-18.7,10.1-25
		c85.7-46.3,176.4-75.3,273.4-86.6c132.7-15.4,260,4.1,382,56.7c114.1,49.2,209.7,123.7,287.3,221c80.6,101,131.5,215.4,152.8,342.4
		c14,83.3,13.9,167.2-1.6,250.8c-43.6,234.4-171.5,409-376.7,527.2c-83.7,48.2-175.2,75.7-271.5,87.2
		c-107.2,12.8-212.3,2.7-314.8-29.8c-104.5-33.1-197.4-87.1-278-161.5c-120.1-110.7-196.9-246.4-229.1-406.4
		c-22.2-110.2-18.7-220.3,9.4-329.4C325.6,834.9,333.8,810.8,342,783.8z"/>
	<path fill-rule="evenodd" clip-rule="evenodd" d="M1252.1,1333.2c-17.1,2.7-33.4-2-47.7-14.9c-75.4-67.9-150.8-135.7-226.4-203.4
		c-20.1-18-25.9-41.1-23.9-66.6c8.9-113.6,18.4-227.2,27.6-340.7c0.6-7.2,1-14.4,1.6-21.6c3.1-33.9,28.2-57.9,60.1-57.6
		c30.3,0.3,56.6,25.3,60.2,56.7c10.6,91.3,23.7,182.4,31.1,274c3.3,41.4,16.1,75.3,40.6,108.2c38.2,51.3,73,105.1,109.2,158
		c5.3,7.8,10.5,15.8,14.6,24.3C1317.2,1286.9,1294.8,1327.7,1252.1,1333.2z"/>
</g>
</svg>
