<?xml version="1.0" encoding="utf-8"?>
<!-- Generator: Adobe Illustrator 16.0.0, SVG Export Plug-In . SVG Version: 6.00 Build 0)  -->
<!DOCTYPE svg PUBLIC "-//W3C//DTD SVG 1.1//EN" "http://www.w3.org/Graphics/SVG/1.1/DTD/svg11.dtd">
<svg version="1.1" id="Capa_1" xmlns="http://www.w3.org/2000/svg" xmlns:xlink="http://www.w3.org/1999/xlink" x="0px" y="0px"
	 width="2048px" height="2048px" viewBox="0 0 2048 2048" enable-background="new 0 0 2048 2048" xml:space="preserve">
<g>
	<path d="M1126,347c19.9-23.1,31.7-53,31.7-85.8c0-73.3-59.5-132.6-132.7-132.6c-73.3,0-132.8,59.4-132.8,132.6
		c0,32.8,11.8,62.6,31.5,85.7C561.5,395.7,282,706.2,282,1081.8c0,409.9,332.3,742,742,742c409.7,0,742-332.1,742-742
		C1766,706.7,1487.5,396.6,1126,347z M1083.1,1641.5c-2.3-34.9-27.9-62.6-59.1-62.6c-31,0-56.8,27.6-59.1,62.4
		C701.6,1613.9,492.1,1404,464.3,1141c35.3-2.3,63.3-28,63.3-59.2c0-31-27.9-56.8-63.3-59.1c27.8-262.9,237.3-472.8,500.6-500.2
		c2.7,34.8,28.5,62.4,59.1,62.4c31,0,56.5-27.6,59.1-62.5c263.1,27.8,473,237.3,500.6,500.4c-35.3,2.3-63.1,28.1-63.1,59.1
		c0,31.2,27.8,56.8,63.1,59.2C1556.1,1404.2,1346.2,1613.7,1083.1,1641.5z"/>
	<path d="M1182,1233.5l175.4-483l-486,173.8l-3.6,1.4l-1.4,3.6l-173.8,486l482.9-175.4l4.7-1.8L1182,1233.5z M938.3,1167.5
		c-47.3-47.3-47.2-124,0.1-171.3c47.3-47.3,124-47.4,171.2-0.1c47.4,47.4,47.3,124,0,171.3C1062.4,1214.8,985.7,1214.9,938.3,1167.5
		z"/>
</g>
</svg>
