<?xml version="1.0" encoding="utf-8"?>
<!-- Generator: Adobe Illustrator 16.0.0, SVG Export Plug-In . SVG Version: 6.00 Build 0)  -->
<!DOCTYPE svg PUBLIC "-//W3C//DTD SVG 1.1//EN" "http://www.w3.org/Graphics/SVG/1.1/DTD/svg11.dtd">
<svg version="1.1" id="Capa_1" xmlns="http://www.w3.org/2000/svg" xmlns:xlink="http://www.w3.org/1999/xlink" x="0px" y="0px"
	 width="2048px" height="2048px" viewBox="0 0 2048 2048" enable-background="new 0 0 2048 2048" xml:space="preserve">
<g>
	<path d="M1792,562.2c-60.5,26-121.2,42.3-181.7,48.8c68.4-41,114.6-99,138.7-173.9c-62.5,37.1-129.3,62.5-200.3,76.2
		c-62.5-66.4-139.4-99.7-230.6-99.7c-87.3,0-161.6,30.8-223.2,92.3c-61.5,61.6-92.3,136-92.3,223.2c0,23.5,2.6,47.6,7.8,72.3
		c-128.9-6.5-249.9-38.9-362.9-97.2c-113-58.3-208.9-135.9-287.7-233c-28.6,48.8-43,101.9-43,159.2c0,54,12.7,104.2,38.2,150.4
		c25.4,46.3,59.6,83.7,102.6,112.4c-50.8-1.9-98.3-15.3-142.6-40v3.9c0,76.2,24,143.1,71.8,200.8c47.9,57.6,108.2,93.9,181.2,108.9
		c-27.3,7.2-55,10.8-83,10.8c-18.3,0-38.1-1.6-59.6-4.9c20.2,63.2,57.3,115.1,111.4,155.8c54.1,40.7,115.3,61.7,183.7,63
		c-114.6,89.9-245.2,134.8-391.7,134.8c-28,0-53.4-1.3-76.2-3.9c146.5,94.4,308,141.6,484.5,141.6c112,0,217.2-17.7,315.5-53.2
		c98.4-35.5,182.4-83,252-142.6c69.7-59.6,129.8-128.1,180.2-205.6c50.5-77.5,88.1-158.4,112.8-242.7
		c24.8-84.4,37.1-168.8,37.1-253.5c0-18.2-0.3-31.9-1-41C1695.6,680.3,1748.4,626,1792,562.2z"/>
</g>
</svg>
