<?xml version="1.0" encoding="utf-8"?>
<!-- Generator: Adobe Illustrator 18.1.1, SVG Export Plug-In . SVG Version: 6.00 Build 0)  -->
<svg version="1.1" id="Capa_1" xmlns="http://www.w3.org/2000/svg" xmlns:xlink="http://www.w3.org/1999/xlink" x="0px" y="0px"
	 width="2048px" height="2048px" viewBox="726 -604.1 2048 2048" enable-background="new 726 -604.1 2048 2048"
	 xml:space="preserve">
<path id="Cardio_x5F_heart" d="M2174.9-229C1986.8-229,1825-98.2,1750,38.4c-75-136.6-236.9-267.5-424.9-267.5
	c-259.2,0-469.7,180-469.7,401.7c0,125.2,41,224.8,108,312.9h269.1c15.2-25.1,30.4-50.1,45.7-75.2c4.6-7.6,12.7-12.4,21.6-12.4
	c8.1,0,18.1,4.6,21.6,12.4c2.8,6.3,5.6,12.5,8.4,18.8c10.9,24.6,21.9,49.1,32.8,73.7c9.2-34.1,18.4-68.1,27.6-102.2
	c11.8-43.8,23.7-87.6,35.5-131.4c9.8-36.2,19.6-72.4,29.4-108.6c4.1-15.1,8.1-30.2,12.2-45.2c3-11,13.1-17.9,24.1-18.3
	c10.2-0.5,22.2,8.1,24.1,18.3c0.1,0.4,0.1,0.8,0.2,1.1c1.9,8.4,3.1,17,4.6,25.4c3.3,17.9,6.5,35.7,9.8,53.5
	c9.9,54.1,19.7,108.3,29.6,162.4c11.4,62.7,22.8,125.3,34.3,188c7.3,40.2,14.7,80.4,22,120.7c7.4-24.7,14.7-49.3,22.1-73.9
	c8.8-29.6,17.7-59.1,26.5-88.7c3.1-10.6,12.9-18.3,24.1-18.3h199.7c9.5-37.7,43.7-65.6,84.4-65.6c48.1,0,87,39,87,87s-39,87-87,87
	c-38,0-70.4-24.4-82.2-58.4h-183.2c-1.4,4.8-2.9,9.5-4.3,14.3c-14.1,47.2-28.2,94.3-42.3,141.5c-8.8,29.6-17.7,59.1-26.5,88.7
	c-3.3,10.9-12.9,17.8-24.1,18.3c-10.2,0.5-22.2-8.1-24.1-18.3c-0.1-0.4-0.1-0.8-0.2-1.1c-1.9-8.4-3.1-17-4.6-25.4
	c-3.3-17.8-6.5-35.7-9.8-53.5c-9.9-54.2-19.7-108.3-29.6-162.4c-11.4-62.7-22.8-125.3-34.3-188c-6.9-38.1-13.9-76.2-20.8-114.3
	c-5.7,21.1-11.4,42.2-17.1,63.2c-11.8,43.8-23.7,87.6-35.5,131.4c-9.8,36.2-19.6,72.4-29.4,108.6c-4.1,15.1-8.2,30.1-12.2,45.2
	c-2.6,9.6-11.1,16.6-20.8,17.9c-8.8,1.2-20.9-3-24.9-11.9c-2.8-6.3-5.6-12.5-8.4-18.8c-14-31.4-28-62.8-42-94.3
	c-8.9,14.7-17.8,29.4-26.8,44.1c-5.3,8.7-13.1,14.5-23.7,14.9c-2.2,0.1-4.4,0-6.5,0h-234.3c184.3,202.6,502.4,354.2,744.8,652.4
	c342.7-443.1,894.5-578.5,894.5-1015.2C2644.6-49.1,2434.1-229,2174.9-229z"/>
</svg>
