<?xml version="1.0" encoding="utf-8"?>
<!-- Generator: Adobe Illustrator 16.0.0, SVG Export Plug-In . SVG Version: 6.00 Build 0)  -->
<!DOCTYPE svg PUBLIC "-//W3C//DTD SVG 1.1//EN" "http://www.w3.org/Graphics/SVG/1.1/DTD/svg11.dtd">
<svg version="1.1" id="Capa_1" xmlns="http://www.w3.org/2000/svg" xmlns:xlink="http://www.w3.org/1999/xlink" x="0px" y="0px"
	 viewBox="0 0 2048 2048" enable-background="new 0 0 2048 2048" xml:space="preserve" fill="#ffffff">
<g>
	<path fill-rule="evenodd" clip-rule="evenodd" d="M1270.7,1075.4c2.1,129.1-47.7,234.6-132.8,326c-27.7,29.8-59.5,54.9-92.4,78.6
		c-14.3,10.3-27.1,10.8-41.9,0.5c-77.9-54.1-140.4-121.8-182.3-206.6c-36.9-74.8-47.8-154.3-41-237.2
		c11.5-140.4,64.1-267.6,124.6-392.6c32-66.1,66.5-130.9,106.9-192.5c12.1-18.4,13.7-18.1,25.2-0.1
		c78.4,123.4,143.7,253.4,190.2,391.8C1252.6,919.1,1272.4,996.8,1270.7,1075.4z"/>
	<path fill-rule="evenodd" clip-rule="evenodd" d="M771.1,1538.4c-135.4-1-241.8-48.9-331.7-135.4
		c-84.4-81.2-151.6-175.3-211.3-275.2c-33.3-55.8-64.4-112.6-91.6-171.5c-7.9-17.1-5.8-21.8,13.4-20.9c38.6,1.8,76.9,6.7,115.6,8.2
		c56.6,2.3,112.9,9.2,168.7,19.1c80.1,14.2,158.7,33.1,235.6,60.6c37.6,13.4,52,30.1,55.1,70.1c9.4,123.3,68.6,224.6,154.1,311.9
		c25.5,26.1,54.3,48.9,84.5,69.6c4.7,3.2,12.3,4.8,10.9,12.4c-1,5.5-6.9,7.9-11.8,9.8c-37.4,14.3-75.1,27.5-115.1,32.6
		C819.2,1533.3,791.4,1542.1,771.1,1538.4z"/>
	<path fill-rule="evenodd" clip-rule="evenodd" d="M1287.6,1537.9c-68.8-0.2-134.7-14.9-198.5-39.5c-6.2-2.4-14-4.4-15.1-11.6
		c-1.3-8.3,7.8-9.5,12.9-13.2c104.9-75.4,183.5-169.7,220.9-295c11.3-37.8,16.4-76.1,18.6-115c0.7-11.9,4.3-19.6,15.7-24.7
		c50.5-22.8,103.1-39.4,156.9-52.4c107.8-26.1,217.1-41.6,328.2-44.7c23.2-0.7,46.4-5.3,69.6-6.3c20.6-0.9,22.9,3.5,14.6,21.4
		c-53.6,114.8-117.3,223.6-194.8,324.4c-53.6,69.8-111.5,135.1-185.8,184c-51.1,33.6-106.5,56.5-167.7,66.1
		C1337.8,1535.2,1313,1538.6,1287.6,1537.9z"/>
	<path fill-rule="evenodd" clip-rule="evenodd" d="M516.5,558.8c3.7,1.9,7.9,3.8,11.9,6.1c83.9,48.9,163.3,104.4,239.6,164.4
		c11,8.7,14.3,17.3,8.8,32.3c-23.9,65.2-42.9,131.9-50.8,201c-1.8,15.4-6.6,17.6-20.1,11.5c-44.3-19.9-90.2-35.5-136.6-50
		c-13.5-4.2-27.2-6.2-40.8-9.1c-11.3-2.4-17.8-8.1-18.5-19.8c-5.7-87.5-13.2-175-5.7-262.8c1.7-19.7,0.8-39.6,1.3-59.4
		C505.8,566.3,506.7,559.7,516.5,558.8z"/>
	<path fill-rule="evenodd" clip-rule="evenodd" d="M1547.2,698.9c-0.9,73.3-4.2,133.9-8.6,194.5c-0.8,11.3-5.3,18.7-17.1,21.1
		c-61.7,12.3-120.2,34.4-177.7,59.2c-16,6.9-20,3.2-22-13.4c-7.7-65.9-24.2-129.8-48.2-191.7c-7.4-19-4.4-30.3,12.3-43.6
		c74.2-58.7,152.1-111.8,233.5-160c17.6-10.4,23.3-8.1,23,11.6C1541.7,621.7,1549.6,666.4,1547.2,698.9z"/>
</g>
</svg>
