<?xml version="1.0" encoding="utf-8"?>
<!-- Generator: Adobe Illustrator 18.1.1, SVG Export Plug-In . SVG Version: 6.00 Build 0)  -->
<svg version="1.1" id="Capa_1" xmlns="http://www.w3.org/2000/svg" xmlns:xlink="http://www.w3.org/1999/xlink" x="0px" y="0px"
	 viewBox="0 0 59.1 60.5" enable-background="new 0 0 59.1 60.5" xml:space="preserve" fill="#ffffff">
<g>
	<g>
		<path d="M3.5,9.6c0-1.3,0-2.4,0-3.7c0.4,0,0.7-0.1,1-0.1c13.4,0,26.9,0,40.3,0c3.7,0,6.8,1.1,8.9,4.3c3.9,5.9,0.2,13.8-6.8,14.5
			c-0.5,0.1-1.1,0.2-1.7,0.3c0,5,0,10,0,15c-12.7,0-25.2,0-37.9,0c0-5,0-10,0-15.1c-1.3,0-2.5,0-3.8,0c0-1.3,0-2.5,0-3.8
			c1.2,0,2.4,0,3.7,0c0-0.9,0-1.7,0-2.4c-0.1-1.1,0.3-1.4,1.4-1.4c7.3,0,14.5,0,21.8,0c4.4,0,8.8,0,13.2,0c1.1,0,1.6,0.3,1.5,1.5
			c-0.1,0.7,0,1.5,0,2.2c2.5,0.4,5.2-1.4,6-3.8c0.9-2.6-0.2-5.6-2.7-6.7c-1.3-0.6-2.9-0.8-4.3-0.8c-13.1-0.1-26.1,0-39.2,0
			C4.5,9.6,4.1,9.6,3.5,9.6z"/>
		<path d="M45.1,43.9c0,3.5,0,7,0,10.4c0,0.9-0.6,0.9-1.2,0.9c-3.8,0-7.6,0-11.5,0c-7.8,0-15.7,0-23.5,0c-1.7,0-1.7,0-1.7-1.6
			c0-3.2,0-6.4,0-9.6C19.9,43.9,32.4,43.9,45.1,43.9z"/>
	</g>
</g>
</svg>
