<?xml version="1.0" encoding="utf-8"?>
<!-- Generator: Adobe Illustrator 18.1.1, SVG Export Plug-In . SVG Version: 6.00 Build 0)  -->
<svg version="1.1" id="svg" xmlns="http://www.w3.org/2000/svg" xmlns:xlink="http://www.w3.org/1999/xlink" x="0px" y="0px"
	 viewBox="100 -100 400 400" enable-background="new 100 -100 400 400" xml:space="preserve" fill="#ffffff">
<path id="path0" d="M302.7,68.7l-7.2,7.3l7.3-7.2c6.8-6.7,7.5-7.4,7.2-7.4C310,61.3,306.7,64.6,302.7,68.7"/>
<path id="path1" d="M377.7,53.8l-5.3,5.4l5.4-5.3c5-4.9,5.5-5.5,5.3-5.5C383,48.4,380.6,50.9,377.7,53.8
	 M261.3,110.1l-11.5,11.6l11.6-11.5c6.4-6.3,11.6-11.6,11.6-11.6C273,98.3,272,99.3,261.3,110.1"/>
<path d="M296.4-99.8c0.5-0.2,0.9-0.3,1.4-0.5c-1,0-2,0-3,0.1c-1.6,0.4-3.3,0.8-4.9,1.3
	C292.1-99.2,294.3-99.5,296.4-99.8z"/>
<path d="M181.1,254.8c9.6-2.4,4.6,2.2,94.9-87.9l83.2-83l2.1,0.7c34.6,11.2,74.8-10.5,86.2-46.3
	c3.6-11.4,4.1-33.4,0.9-38.7c-0.2-0.3-9.2,8.1-19.9,18.8s-20,19.4-20.6,19.4c-0.9,0-37-9.5-37.5-9.8c-0.2-0.1-3.2-11.1-7.4-26.9
	l-2.9-11.1l19.8-19.8c19.5-19.6,19.8-19.8,18.1-20.5c-5.9-2.2-22.7-2.6-31.5-0.7c-37.6,8.2-62.3,45.5-54.2,82.1l1.1,5.1l-83.4,83.1
	c-90.7,90.4-86.6,86-88.9,95.4C135.2,239.2,156.8,260.8,181.1,254.8z M158.6,224.7c1.9-7.4,10.1-10.9,17.2-7.5
	c5.7,2.8,8.3,10.8,5.2,16.1C173.5,246.1,154.9,238.9,158.6,224.7z"/>
<path d="M100-100"/>
<path id="path4" d="M388.3,43.3l-5.3,5.4l5.4-5.3c5-4.9,5.5-5.5,5.3-5.5C393.6,37.9,391.2,40.3,388.3,43.3
	 M284.2,87.2l-11.3,11.4l11.4-11.3c6.3-6.2,11.4-11.4,11.4-11.4C295.7,75.6,294.7,76.6,284.2,87.2"/>
</svg>
