<?xml version="1.0" encoding="utf-8"?>
<!-- Generator: Adobe Illustrator 18.1.1, SVG Export Plug-In . SVG Version: 6.00 Build 0)  -->
<svg version="1.1" id="Capa_1" xmlns="http://www.w3.org/2000/svg" xmlns:xlink="http://www.w3.org/1999/xlink" x="0px" y="0px"
	 viewBox="0 0 512 512" enable-background="new 0 0 512 512" xml:space="preserve">
<path fill="#FFFFFF" d="M254,498.6c-140.6-1.3-252.3-123.5-237-266.8c11.7-109,97.8-197.6,206.5-212.1
	C353.4,2.4,470.3,90.3,492.9,214.9c0,0.2,0.1,0.3,0.1,0.5c2.6,14.7,3.9,29.8,3.8,44.9C495.5,392.9,386.6,499.8,254,498.6z
	 M258.2,37.9c-129.7-1.2-234.6,110.6-221,243.4c10.4,101.1,91,183.2,191.9,195.4c132.5,16,246.2-86.9,247.4-216.6
	c0.1-11.1-0.6-22.2-2.2-33.1l-79.9-0.7c-0.3,0-0.6,0-0.9,0l-102.2-0.9c-2.7,0-5.2-1.1-7-2.9c-13.7-12.1-33.7-15.6-51.8-7.3
	c-12.7,5.8-22.2,17.5-25.5,31c-7.6,31,15.6,59.1,45.5,59.3c11.5,0.1,22.5-3.9,31.2-11.4c1.8-1.7,4.3-2.7,7-2.7l0,0l102.7,0.9
	c3.2,0,6.3,1.6,8.2,4.2c1.9,2.6,2.4,6,1.4,9.1c-22.1,68.3-87.8,112.3-160.5,106c-76.1-6.7-136.9-70.5-140.1-146.9
	c-3.7-88.7,67.7-161.6,155.4-160.8c65.2,0.6,122,41.3,143.7,102.1l69.1,0.6C447.1,109.1,359.7,38.8,258.2,37.9z M257.4,124.3
	c-75.8-0.7-137.7,62.1-135,138.7c2.5,69.2,59.5,126.3,128.6,128.9c55.6,2.1,105.4-29.6,127.4-79.3l-84.4-0.8
	c-19.3,14.8-45.7,18.6-69.7,7.9c-19.5-8.7-33.8-26.9-38-47.9c-8.6-43.7,25-81.9,67-81.5c15.2,0.1,29.8,5.4,41.6,14.8l84.4,0.8
	C358.9,157,311.4,124.8,257.4,124.3z"/>
</svg>
