<?xml version="1.0" encoding="utf-8"?>
<!-- Generator: Adobe Illustrator 18.1.1, SVG Export Plug-In . SVG Version: 6.00 Build 0)  -->
<svg version="1.1" id="Capa_1" xmlns="http://www.w3.org/2000/svg" xmlns:xlink="http://www.w3.org/1999/xlink" x="0px" y="0px"
	 viewBox="0 0 512 512" enable-background="new 0 0 512 512" xml:space="preserve">
<g>
	<path fill-rule="evenodd" clip-rule="evenodd" fill="#555759" d="M256.1,79.3L149.9,289.9c13.4-11.8,39.2-20.7,61.5-25l44.9-92.5
		L336,336.7h49L256.1,79.3z"/>
	<path fill-rule="evenodd" clip-rule="evenodd" fill="#004987" d="M291.1,274.4c-12.4-2.3-25.7-3.5-39.5-3.5
		c-67.1,0-103.6,22-121.3,52.8c0,0-7.7,12.6,5.9,12.6h56.4C195.5,307.4,243.1,283.2,291.1,274.4z"/>
	<path fill-rule="evenodd" clip-rule="evenodd" fill="#555759" d="M28.7,395.5h18.1l-9-20.6L28.7,395.5L28.7,395.5z M20.5,413.2
		h-9.8l27.2-57h0.8l26.2,57H54.6l-4.4-9.8H25.1L20.5,413.2z"/>
	<path fill-rule="evenodd" clip-rule="evenodd" fill="#555759" d="M76.1,385.6c0,5.7,1.7,10.5,5,14.3c3.4,3.8,7.5,5.7,12.4,5.7
		c4.9,0,9.1-1.9,12.5-5.7c3.4-3.8,5.1-8.6,5.1-14.3c0-5.7-1.7-10.5-5-14.3c-3.4-3.8-7.5-5.7-12.5-5.7c-5,0-9.1,1.9-12.5,5.7
		C77.8,375.1,76.1,379.9,76.1,385.6L76.1,385.6z M112.5,429c-5.8-0.8-12.3-2.9-19.3-6.5c-0.6-0.3-1.1-0.6-1.4-0.7
		c-4.3-2.2-7.8-3.7-10.6-4.6c-2.8-0.9-5.4-1.5-7.9-1.8L76,409c0.4,0,0.9,0.1,1.4,0.2c0.5,0.1,1.1,0.2,1.9,0.4
		c-4.2-2.2-7.4-5.3-9.7-9.6c-2.3-4.2-3.5-9-3.5-14.4c0-4.1,0.7-7.9,2-11.5c1.4-3.6,3.4-6.7,6-9.5c2.5-2.7,5.5-4.8,8.8-6.3
		c3.3-1.4,6.9-2.2,10.6-2.2c3,0,6,0.5,8.8,1.5c2.9,1,5.5,2.5,7.8,4.4c3.5,2.8,6.1,6.2,8,10.3c1.9,4,2.8,8.5,2.8,13.2
		c0,4.6-0.9,8.9-2.8,12.9c-1.9,4-4.5,7.3-7.9,10c-2.2,1.8-4.6,3.1-7.1,4c-2.5,0.9-4.9,1.4-7.3,1.4c-0.7,0-1.3,0-1.7,0
		c-0.4,0-0.8,0-1.2-0.1v0.4c4.8,1.9,8.8,3.3,12.2,4.2c3.3,1,6.6,1.7,9.7,2.2L112.5,429z"/>
	<path fill-rule="evenodd" clip-rule="evenodd" fill="#555759" d="M139.8,358v32.2c0,5.3,1.1,9.3,3.4,12.1c2.3,2.7,5.6,4.1,10,4.1
		c4.4,0,7.7-1.4,9.9-4.2c2.2-2.8,3.3-6.8,3.3-12.2l0-32h8.7v32.2c0,7.8-2,13.9-5.9,18.3c-3.9,4.4-9.4,6.6-16.2,6.6
		c-7.3,0-13-2.1-17-6.4c-4-4.3-6-10.4-6-18.3V358H139.8z"/>
	<path fill-rule="evenodd" clip-rule="evenodd" fill="#555759" d="M196,395.5h18.1l-9-20.6L196,395.5L196,395.5z M187.8,413.2H178
		l27.2-57h0.8l26.2,57h-10.2l-4.5-9.8h-25.1L187.8,413.2z"/>
	<polygon fill-rule="evenodd" clip-rule="evenodd" fill="#555759" points="263.9,413.2 263.9,358 273.6,358 273.6,380 299.9,380 
		299.9,358 309.4,358 309.4,413.2 299.9,413.2 299.9,388.5 273.6,388.5 273.6,413.2 	"/>
	<path fill-rule="evenodd" clip-rule="evenodd" fill="#555759" d="M327.4,385.6c0,5.7,1.7,10.5,5,14.3c3.4,3.8,7.5,5.7,12.4,5.7
		c5,0,9.1-1.9,12.5-5.7c3.4-3.8,5.1-8.6,5.1-14.3c0-5.7-1.7-10.5-5-14.3c-3.3-3.8-7.5-5.7-12.5-5.7c-5,0-9.1,1.9-12.5,5.7
		C329.1,375.1,327.4,379.9,327.4,385.6L327.4,385.6z M317.4,385.6c0-3.4,0.5-6.7,1.4-9.7c0.9-3.1,2.3-5.9,4.2-8.5
		c2.6-3.6,5.8-6.3,9.6-8.3c3.8-2,7.9-2.9,12.2-2.9c3.7,0,7.2,0.7,10.6,2.2c3.4,1.5,6.3,3.5,8.9,6.2c2.6,2.8,4.6,6,6,9.5
		c1.4,3.5,2.1,7.4,2.1,11.5c0,4.1-0.7,7.9-2.1,11.5c-1.4,3.6-3.4,6.7-6,9.4c-2.6,2.7-5.6,4.8-9,6.3c-3.4,1.5-6.8,2.2-10.5,2.2
		c-3.7,0-7.2-0.7-10.5-2.2c-3.3-1.4-6.3-3.5-8.9-6.2c-2.7-2.8-4.7-6-6.1-9.5C318.1,393.5,317.4,389.7,317.4,385.6z"/>
	<polygon fill-rule="evenodd" clip-rule="evenodd" fill="#555759" points="402.1,366.4 402.1,413.2 392.3,413.2 392.3,366.4 
		373.7,366.4 373.7,358 420.7,358 420.7,366.4 	"/>
	<polygon fill-rule="evenodd" clip-rule="evenodd" fill="#555759" points="425.9,413.2 425.9,358 458,358 458,366.5 435.3,366.5 
		435.3,380.1 454.8,380.1 454.8,388.5 435.3,388.5 435.3,404.6 458.4,404.6 458.4,413.2 	"/>
	<polygon fill-rule="evenodd" clip-rule="evenodd" fill="#555759" points="467.6,413.2 467.6,358 477.3,358 477.3,404.6 501,404.6 
		501,413.2 	"/>
</g>
</svg>
